<svg width="85" height="85" viewBox="0 0 85 85" fill="none" xmlns="http://www.w3.org/2000/svg">
<path d="M36.5338 1.43341C37.448 2.06566 38.2764 2.77147 39.0453 3.55942C40.1613 3.22184 41.2505 2.88272 42.3185 2.42347C46.5535 0.806831 50.9926 1.44896 55.132 2.9681C58.024 4.18947 59.911 6.05844 61.2344 8.7412C61.6945 10.7591 61.5243 12.3733 60.5415 14.2177C60.3051 14.7587 60.3051 14.7587 60.5292 15.2836C60.9436 15.8314 61.3614 16.1471 61.9417 16.5372C66.0405 19.4733 68.8128 23.3153 70.8897 27.7099C71.0556 28.0604 71.0556 28.0604 71.2249 28.418C74.2088 35.125 74.0149 43.1476 71.1529 49.8687C70.7175 50.7636 70.2494 51.6414 69.7525 52.5073C69.0627 53.7247 68.5963 54.6902 68.9889 56.06C69.0896 56.3071 69.1904 56.5542 69.2942 56.8088C70.2093 59.4543 70.2343 62.2748 69.1688 64.8985C68.3336 66.3224 67.1583 67.2946 65.5419 67.8415C62.5592 68.4646 59.4934 68.1453 56.6781 67.0479C56.5913 66.8836 56.5044 66.7192 56.415 66.5499C56.6161 66.5859 56.8173 66.6218 57.0246 66.6589C61.7484 67.4487 61.7484 67.4487 66.1525 66.052C67.6217 64.9945 68.0884 63.6888 68.3422 62.0081C68.6218 56.7711 65.3082 51.8475 61.8265 48.0792C61.4303 47.6762 61.0301 47.2767 60.6258 46.881C60.4453 46.7038 60.2648 46.5266 60.0789 46.3441C58.4564 44.8661 56.6002 44.0194 54.5727 43.1464C54.5727 43.475 54.5727 43.8036 54.5727 44.1422C54.399 44.1422 54.2253 44.1422 54.0464 44.1422C53.9595 44.3066 53.8727 44.4709 53.7832 44.6402C53.6066 43.9921 53.4313 43.3437 53.2568 42.6951C53.2066 42.5113 53.1564 42.3276 53.1047 42.1383C52.9009 41.3773 52.7305 40.698 52.7305 39.9097C52.5568 39.8275 52.3831 39.7454 52.2041 39.6607C52.3778 39.4964 52.5515 39.3321 52.7305 39.1628C53.2559 37.8097 53.3187 36.6122 53.2568 35.1792C53.0506 35.3384 52.8443 35.4975 52.6318 35.6616C51.5453 36.4692 50.9506 36.4578 49.5724 36.4552C49.2412 36.4558 48.9101 36.4564 48.569 36.4571C47.7301 36.424 47.7301 36.424 47.2038 36.1751C47.2038 36.3394 47.2038 36.5037 47.2038 36.673C45.3391 37.9858 43.7231 38.4632 41.4139 38.1669C40.2244 37.7378 39.4967 37.1836 38.7821 36.1906C38.5059 35.3904 38.4558 34.7704 38.5189 33.9343C38.6305 34.0421 38.7421 34.15 38.8571 34.2611C39.6901 35.0092 40.1779 35.3958 41.3316 35.5993C42.2498 35.4992 42.2498 35.4992 42.8449 34.8057C42.9806 34.6003 43.1163 34.3949 43.2561 34.1833C43.1693 34.0189 43.0824 33.8546 42.9929 33.6853C43.3227 33.6789 43.6524 33.6725 43.9922 33.6659C44.4267 33.6519 44.8612 33.6376 45.2957 33.6231C45.5128 33.6195 45.73 33.616 45.9537 33.6124C46.9643 33.5738 47.5595 33.5485 48.4045 32.9929C48.8226 32.3824 48.8991 32.0992 48.8486 31.3823C48.8269 31.0742 48.8052 30.7661 48.7828 30.4487C48.9565 30.4487 49.1302 30.4487 49.3092 30.4487C49.5724 30.9466 49.5724 30.9466 49.5724 32.4405C51.2659 32.9334 51.2659 32.9334 52.9937 33.4363C52.4859 31.8351 51.8169 30.408 50.9941 28.9286C50.2395 27.455 50.04 26.332 50.0987 24.7222C48.2298 24.3598 48.2298 24.3598 46.5129 24.9557C46.3067 25.1251 46.1004 25.2946 45.8879 25.4692C45.9549 24.5391 46.0543 24.0803 46.7103 23.3684C47.7118 22.8535 48.2228 22.9481 49.3092 23.2284C49.6566 23.4749 50.004 23.7214 50.3619 23.9753C50.275 22.9072 50.1882 21.8391 50.0987 20.7387C46.3795 19.7334 42.9255 20.188 39.3084 21.2366C39.0598 21.2883 38.8111 21.3399 38.5549 21.3932C37.8435 21.5859 37.466 21.737 36.9398 22.2325C36.3881 23.4432 36.1376 24.6791 35.8871 25.9671C35.8093 26.3259 35.7305 26.6844 35.6507 27.0428C35.4557 27.9273 35.2734 28.8136 35.0976 29.7017C34.8635 29.5183 34.8635 29.5183 34.6247 29.3312C33.8731 28.8433 33.3579 28.8973 32.4658 28.9548C32.0626 29.7177 32.1423 30.3532 32.2027 31.1956C32.7405 32.3023 33.3533 32.7217 34.489 33.2652C34.7506 33.3926 35.0121 33.52 35.2816 33.6513C35.5814 33.7914 35.5814 33.7914 35.8871 33.9343C35.7134 34.0165 35.5397 34.0986 35.3608 34.1833C36.93 37.9014 38.1621 39.9952 42.2034 41.6525C42.2034 41.8168 42.2034 41.9812 42.2034 42.1505C40.4957 42.4055 39.3415 41.5272 37.9926 40.6566C37.5453 40.3351 37.1012 40.0087 36.6767 39.6607C36.503 40.0715 36.3293 40.4823 36.1503 40.9056C36.3081 40.9675 36.4658 41.0295 36.6284 41.0933C38.0902 41.8825 38.8115 43.6558 39.4565 45.0603C39.9773 46.1864 40.4813 47.0172 41.4139 47.8769C41.9837 48.112 41.9837 48.112 42.4666 48.1258C42.4937 47.9667 42.5209 47.8075 42.5488 47.6435C42.6085 47.474 42.6682 47.3045 42.7297 47.1299C42.9903 47.0478 43.2508 46.9656 43.5193 46.881C43.3219 48.3126 43.3219 48.3126 42.7297 48.8728C41.8042 48.9071 41.1647 48.8219 40.4126 48.2844C39.1263 47.0216 38.52 45.5625 37.8404 43.9516C37.3995 43.0028 36.9189 42.3796 36.1503 41.6525C35.0281 41.7705 34.541 42.4091 33.7817 43.1464C33.608 43.1464 33.4343 43.1464 33.2554 43.1464C33.3422 43.3928 33.4291 43.6393 33.5185 43.8933C33.4291 44.4671 33.4291 44.4671 33.2718 45.107C32.8432 46.8377 32.8432 46.8377 33.5103 48.4575C33.7293 48.7484 33.9514 49.0373 34.1765 49.324C34.3459 49.5472 34.3459 49.5472 34.5188 49.7748C34.7967 50.1399 35.0784 50.5025 35.3608 50.8646C35.1871 51.0289 35.0134 51.1932 34.8344 51.3625C34.2927 50.7892 33.765 50.2058 33.2389 49.6197C33.0861 49.4583 32.9333 49.2968 32.7758 49.1305C31.7044 47.919 31.7044 47.919 31.6281 47.129C31.6958 46.6165 31.8 46.1353 31.9395 45.6361C32.2452 44.5381 32.3814 44.0131 31.8779 42.9742C31.4043 42.2229 30.9011 41.5016 30.3769 40.7811C30.1999 40.5288 30.023 40.2766 29.8407 40.0167C29.4049 39.3967 28.964 38.7805 28.5182 38.1669C27.0612 38.4177 25.8738 38.7063 24.6199 39.4895C24.3848 39.6324 24.1497 39.7752 23.9074 39.9223C23.2149 40.4372 22.7237 40.984 22.2019 41.6525C22.9454 43.1585 23.6599 44.5062 24.7395 45.8188C26.2415 47.7103 26.3095 49.2533 26.1974 51.5788C26.1036 53.612 26.4478 55.1717 27.2023 57.0889C27.9987 59.1568 28.0268 61.1231 28.0083 63.2977C28.0071 63.563 28.0059 63.8282 28.0047 64.1015C28.0016 64.7517 27.9973 65.4018 27.9918 66.052C27.905 66.052 27.8181 66.052 27.7286 66.052C27.7286 65.4769 27.7286 64.9017 27.7286 64.3092C27.537 64.2427 27.3453 64.1763 27.1478 64.1079C24.8382 63.1758 22.9514 61.4394 21.1492 59.8276C20.9321 59.6412 20.715 59.4547 20.4913 59.2626C16.7057 55.8883 14.227 51.298 12.7275 46.632C12.6431 46.3695 12.5586 46.1069 12.4716 45.8364C11.2966 41.3799 11.4647 36.1207 12.7275 31.6935C12.7978 31.4239 12.868 31.1543 12.9403 30.8766C14.0937 26.8806 16.4763 23.3039 19.0438 19.9917C18.9135 19.7452 18.9135 19.7452 18.7806 19.4938C18.6146 18.0112 18.7618 16.8176 19.5701 15.5102C20.5324 14.5145 21.2977 13.9673 22.7283 13.7674C22.6523 13.6159 22.5763 13.4644 22.498 13.3083C21.4323 10.928 21.1572 8.18923 22.0539 5.70682C23.4069 3.03907 25.7441 1.46964 28.4853 0.229386C31.2431 -0.292406 34.0965 0.0624255 36.5338 1.43341Z" fill="#E00019"/>
<path d="M50.0989 20.4898C50.3621 20.7387 50.3621 20.7387 50.3878 21.4711C50.3848 21.7686 50.3817 22.0661 50.3786 22.3726C50.3762 22.6708 50.3738 22.9689 50.3714 23.2761C50.3683 23.5069 50.3653 23.7377 50.3621 23.9754C50.2071 23.8981 50.052 23.8207 49.8923 23.741C49.0552 23.3625 48.3961 23.2439 47.4672 23.2285C46.6718 23.7526 46.6718 23.7526 46.1513 24.4734C46.1513 24.7198 46.1513 24.9663 46.1513 25.2203C46.4281 24.9738 46.4281 24.9738 46.7105 24.7223C47.5976 24.1385 47.9886 24.0967 49.0462 24.2244C49.6045 24.4092 49.6045 24.4092 50.0989 24.7223C50.2799 25.2281 50.2799 25.2281 50.3621 25.8427C50.7293 27.945 51.666 29.7561 52.743 31.6129C53.0244 32.2619 53.0407 32.7416 52.9939 33.4364C51.7125 33.288 50.539 33.0456 49.3094 32.6895C49.3094 31.9501 49.3094 31.2106 49.3094 30.4487C49.1357 30.4487 48.962 30.4487 48.7831 30.4487C48.8699 30.6131 48.9567 30.7774 49.0462 30.9467C49.1826 31.914 49.1514 32.3069 48.5271 33.0999C47.4727 33.8747 46.7103 33.8784 45.4111 33.8877C45.2036 33.894 44.9962 33.9002 44.7824 33.9067C44.2739 33.9212 43.7651 33.9285 43.2563 33.9344C43.2563 34.1809 43.2563 34.4274 43.2563 34.6813C42.6621 35.4683 42.333 35.6568 41.3154 35.8173C40.0777 35.6356 39.6666 35.2485 38.7823 34.4323C38.9162 35.5212 39.1141 36.3008 39.835 37.1711C41.1982 38.106 42.6886 38.1221 44.309 37.918C44.9094 37.7113 45.4294 37.4713 45.9786 37.1642C46.4145 36.9221 46.4145 36.9221 47.204 36.6731C47.204 36.5088 47.204 36.3445 47.204 36.1752C47.4896 36.1867 47.7753 36.1983 48.0696 36.2102C48.45 36.2195 48.8303 36.2286 49.2107 36.2374C49.3983 36.2457 49.5859 36.2541 49.7792 36.2627C51.1603 36.2867 51.8787 36.0093 52.9939 35.1793C53.1676 35.0971 53.3413 35.0149 53.5202 34.9303C53.6198 36.6329 53.4408 37.8444 52.7307 39.4118C52.7307 39.9599 52.8529 40.3594 53.0186 40.8843C53.1076 41.1683 53.1076 41.1683 53.1985 41.4581C53.2926 41.7546 53.2926 41.7546 53.3887 42.0572C53.4828 42.3566 53.4828 42.3566 53.5788 42.6621C53.7341 43.1557 53.8903 43.649 54.0466 44.1423C54.2203 44.1423 54.394 44.1423 54.573 44.1423C54.4861 43.7315 54.3993 43.3207 54.3098 42.8975C56.5779 43.6643 58.3204 44.5998 60.0997 46.1341C60.3161 46.3187 60.5326 46.5032 60.7556 46.6934C64.9776 50.4822 68.3566 55.8082 68.6529 61.4149C68.5683 63.0513 67.9338 64.4779 66.8929 65.772C64.4108 67.5462 61.9193 67.5678 58.8866 67.1734C58.5921 67.1269 58.2976 67.0804 57.9943 67.0324C56.0939 66.7328 54.947 66.8218 53.2735 67.7482C49.3653 69.833 44.5144 70.1259 40.1918 69.1545C35.8036 68.3422 30.6164 69.6152 26.413 70.7826C26.508 70.5076 26.603 70.2325 26.7008 69.9491C27.4492 67.6343 27.8541 65.4756 27.844 63.0488C27.843 62.6986 27.843 62.6986 27.8419 62.3412C27.7934 60.1804 27.3582 58.1796 26.6597 56.1242C25.8398 53.6948 25.8398 53.6948 25.9534 52.448C26.1695 49.1223 25.7005 47.2083 23.5755 44.563C22.8928 43.6673 22.4223 42.6537 21.939 41.6526C23.2803 39.8586 25.2304 38.5395 27.515 38.058C27.8461 38.0118 28.1773 37.9656 28.5184 37.918C28.9557 38.4906 29.3854 39.0671 29.8086 39.6491C30.188 40.1704 30.5757 40.6863 30.9703 41.1974C32.458 43.2438 32.458 43.2438 32.4815 44.4156C32.3345 45.1382 32.3345 45.1382 32.1289 45.7762C31.9084 46.4835 31.8115 46.8949 31.9397 47.628C32.3611 48.2836 32.8668 48.8614 33.3872 49.4486C33.5253 49.6092 33.6633 49.7699 33.8056 49.9354C34.1458 50.3303 34.4898 50.7223 34.8347 51.1136C34.8347 50.1183 34.438 49.8726 33.7655 49.1218C32.9495 48.0944 32.5769 47.4889 32.7128 46.1964C32.8006 45.7597 32.8934 45.3238 32.9924 44.8893C32.9978 44.5812 33.0033 44.2731 33.0089 43.9556C33.3714 42.7666 34.2262 42.0091 35.361 41.4036C36.0287 41.438 36.3131 41.5661 36.8064 41.9901C37.6748 43.0785 38.2333 44.1488 38.7659 45.4183C39.3761 46.8269 39.9424 47.9115 41.4141 48.6239C42.1296 48.8119 42.1296 48.8119 42.73 48.6239C43.3293 47.923 43.3293 47.923 43.2563 47.13C43.0826 47.13 42.9089 47.13 42.73 47.13C42.5997 47.623 42.5997 47.623 42.4668 48.1259C41.777 48.1067 41.3001 47.9907 40.7582 47.5774C39.6704 46.479 39.1663 45.271 38.5962 43.8817C38.0766 42.7589 37.347 41.4716 36.1505 40.9057C36.3242 40.4127 36.4979 39.9197 36.6769 39.4118C36.8075 39.5081 36.9381 39.6044 37.0727 39.7036C39.4019 41.4137 39.4019 41.4137 42.2036 42.1505C42.2036 41.9862 42.2036 41.8219 42.2036 41.6526C42.0106 41.625 41.8175 41.5974 41.6187 41.569C39.6935 41.1335 38.0082 39.7104 36.9401 38.167C36.2249 36.8926 35.5669 35.6254 35.361 34.1834C35.4479 34.1012 35.5347 34.019 35.6242 33.9344C35.4244 33.841 35.2245 33.7476 35.0187 33.6514C34.7571 33.524 34.4955 33.3965 34.2261 33.2653C33.9665 33.1411 33.707 33.0169 33.4396 32.8889C32.6501 32.3906 32.335 32.0051 31.9397 31.1957C31.8396 30.097 31.8124 29.6335 32.4661 28.7059C33.2391 28.6126 33.2391 28.6126 34.0451 28.7059C34.4903 29.0852 34.4903 29.0852 34.8347 29.4528C34.8981 29.1552 34.8981 29.1552 34.9629 28.8516C35.1573 27.9515 35.3578 27.0528 35.5584 26.1539C35.6581 25.6855 35.6581 25.6855 35.7599 25.2076C35.8277 24.9076 35.8956 24.6075 35.9655 24.2983C36.0261 24.0219 36.0868 23.7455 36.1493 23.4607C36.5477 22.3607 37.1382 21.887 38.2251 21.3826C42.0897 20.0171 46.0534 19.3483 50.0989 20.4898Z" fill="#FBFBFB"/>
<path d="M28.7816 38.167C29.5344 38.9546 30.1124 39.8606 30.7225 40.7501C30.8979 40.9873 31.0733 41.2244 31.254 41.4688C32.1334 42.747 32.6197 43.5811 32.3119 45.1169C32.2473 45.3305 32.1827 45.5441 32.1161 45.7642C31.8777 46.6008 31.774 47.2867 32.1637 48.0893C32.5085 48.5495 32.857 49.0031 33.2227 49.4486C33.3519 49.6067 33.4811 49.7648 33.6142 49.9277C34.2543 50.6516 34.6438 51.0581 35.6129 51.3403C36.2693 51.3323 36.8342 51.2771 37.4664 51.1136C37.1765 50.5583 36.8858 50.0034 36.5947 49.4486C36.4728 49.2149 36.4728 49.2149 36.3484 48.9765C35.8811 48.0876 35.3886 47.2264 34.8347 46.3831C35.8238 46.7529 36.2591 47.2597 36.8578 48.0793C37.0163 48.2914 37.1747 48.5036 37.3379 48.7221C37.7299 49.3714 37.888 49.8796 37.9928 50.6157C38.1665 50.6157 38.3402 50.6157 38.5191 50.6157C38.606 49.8762 38.6928 49.1368 38.7823 48.3749C38.8692 48.3749 38.956 48.3749 39.0455 48.3749C39.0455 49.0322 39.0455 49.6895 39.0455 50.3667C39.3766 50.3513 39.7077 50.3359 40.0489 50.32C41.5257 50.3178 42.9329 50.6069 44.309 51.1136C44.3959 51.278 44.4827 51.4423 44.5722 51.6116C44.333 51.5846 44.333 51.5846 44.089 51.5571C42.4883 51.3894 40.9185 51.3335 39.3087 51.3626C39.5421 51.5167 39.7755 51.6707 40.016 51.8295C41.6675 53.1376 42.2939 55.1688 42.8153 57.0813C42.9659 57.6355 42.9659 57.6355 43.5195 58.0849C43.9865 57.9789 44.4527 57.8693 44.9156 57.7484C49.7425 56.6498 54.7597 56.845 59.5733 57.836C59.6602 57.6716 59.747 57.5073 59.8365 57.338C59.8365 57.5023 59.8365 57.6667 59.8365 57.836C61.4247 58.3349 61.4247 58.3349 62.9782 57.976C63.1573 57.8476 63.3364 57.7193 63.521 57.587C63.6947 57.6691 63.8684 57.7513 64.0473 57.836C63.9349 57.9384 63.8225 58.0408 63.7067 58.1463C61.7818 59.9095 59.8965 61.6524 58.2903 63.6869C55.6904 66.9498 52.2929 68.725 48.0758 69.4579C45.471 69.7997 42.748 69.729 40.1918 69.1546C35.8036 68.3422 30.6164 69.6152 26.413 70.7826C26.508 70.5076 26.603 70.2325 26.7008 69.9492C27.4492 67.6344 27.8541 65.4757 27.844 63.0489C27.843 62.6986 27.843 62.6986 27.8419 62.3413C27.7934 60.1804 27.3582 58.1796 26.6597 56.1243C25.8398 53.6948 25.8398 53.6948 25.9534 52.448C26.1695 49.1223 25.7005 47.2084 23.5755 44.563C22.8928 43.6674 22.4223 42.6537 21.939 41.6526C23.2309 39.9247 26.3814 37.2441 28.7816 38.167Z" fill="#11100F"/>
<path d="M36.9399 2.56341C36.9399 2.72773 36.9399 2.89206 36.9399 3.06136C37.0973 3.12298 37.2547 3.1846 37.4169 3.24809C38.068 3.60007 38.3699 3.97025 38.7821 4.55521C39.9226 4.33031 40.908 3.84626 41.9536 3.37355C45.7127 1.86156 50.2736 1.89481 54.0464 3.31033C56.9298 4.52169 59.1158 5.93471 60.412 8.70997C60.9572 10.8128 60.6807 12.6201 59.5731 14.5142C58.4614 16.07 57.1443 16.9647 55.3623 17.7509C55.1926 17.8276 55.023 17.9043 54.8483 17.9833C53.3115 18.6438 52.0408 18.7779 50.3619 18.7467C50.2751 18.3359 50.1882 17.9251 50.0987 17.5019C50.3756 17.3735 50.6524 17.2451 50.9376 17.1129C52.0001 16.5408 52.7067 15.797 53.2569 14.7632C53.2569 14.5167 53.2569 14.2702 53.2569 14.0162C53.1103 14.2422 52.9637 14.4681 52.8127 14.7009C52.0081 15.7707 51.1144 16.4944 49.8356 17.0039C45.0836 17.665 40.8656 14.7488 37.1588 12.3211C35.5601 11.3375 34.0844 11.3445 32.2027 11.5265C31.4033 11.7849 30.8183 12.0944 30.0973 12.5224C30.3578 12.4402 30.6183 12.3581 30.8868 12.2734C32.6225 11.7261 34.3374 11.8232 35.9858 12.5691C37.0041 13.0765 37.7275 13.7271 38.5189 14.5142C38.2737 14.5838 38.0284 14.6535 37.7757 14.7252C34.0664 15.8134 30.7703 17.3631 27.9918 19.9916C27.8798 21.4161 28.0385 22.8161 28.255 24.2242C26.3553 24.3765 26.3553 24.3765 25.393 23.664C24.8337 22.9793 24.8337 22.9793 24.6034 22.4434C24.4569 22.2157 24.4569 22.2157 24.3074 21.9834C23.7993 21.8735 23.7993 21.8735 23.2217 21.9056C21.875 21.8231 21.2108 21.3046 20.2363 20.4614C19.489 19.5903 19.4777 18.6116 19.4972 17.5077C19.6679 16.3293 20.4422 15.6544 21.3631 14.9188C22.3312 14.4518 22.9718 14.433 24.0442 14.5142C23.9522 14.328 23.8603 14.1419 23.7656 13.9501C23.6458 13.7049 23.5261 13.4597 23.4027 13.2071C23.2836 12.9644 23.1645 12.7218 23.0418 12.4718C22.1146 10.4126 22.1133 7.89699 22.9832 5.81272C24.1408 3.63507 26.0346 1.86923 28.5017 1.08513C31.6768 0.330695 34.2101 0.997225 36.9399 2.56341Z" fill="#FDFDFD"/>
<path d="M19.0438 20.2407C19.1646 20.3428 19.2853 20.4448 19.4098 20.55C19.652 20.7512 19.652 20.7512 19.8991 20.9565C20.0579 21.0894 20.2167 21.2223 20.3802 21.3592C21.2215 21.9835 21.7651 22.2236 22.8434 22.2792C23.8692 22.5005 23.941 22.5639 24.4883 23.3373C24.5816 23.4911 24.6749 23.6448 24.771 23.8032C25.3045 24.4926 25.8978 24.6805 26.7705 24.8254C26.9781 24.8427 27.1858 24.86 27.3997 24.8779C27.61 24.8965 27.8203 24.9151 28.0371 24.9343C28.1958 24.9465 28.3546 24.9587 28.5182 24.9712C28.6666 25.3186 28.8145 25.6662 28.9623 26.0138C29.0593 26.2414 29.1563 26.4689 29.2563 26.7034C29.4681 27.2135 29.6722 27.7265 29.869 28.2419C30.9124 30.9516 32.1225 33.2152 34.3605 35.1967C35.401 36.2515 35.8281 37.4391 36.0023 38.8516C35.7844 40.3828 34.8942 41.1433 33.7334 42.1407C33.2554 42.3994 33.2554 42.3994 32.7404 42.3455C32.067 42.1013 31.9088 41.8617 31.5427 41.281C31.4297 41.1055 31.3167 40.9299 31.2003 40.749C31.0288 40.4722 31.0288 40.4722 30.8539 40.1898C30.6229 39.8274 30.392 39.4649 30.161 39.1025C30.0602 38.9411 29.9594 38.7797 29.8555 38.6134C29.5974 38.2084 29.3218 37.8135 29.0445 37.42C26.8507 37.4968 25.2301 38.2955 23.672 39.7599C23.1652 40.2969 22.6756 40.8403 22.2019 41.4035C22.8957 42.9692 23.6965 44.4304 24.6199 45.8851C24.7977 46.1696 24.7977 46.1696 24.9792 46.4599C25.4942 47.3424 25.4942 47.3424 26.1496 48.1259C26.1597 48.4924 26.1526 48.8594 26.1383 49.2258C26.06 52.0594 26.1472 54.4079 27.2023 57.0889C27.9987 59.1568 28.0268 61.1231 28.0083 63.2977C28.0071 63.563 28.0059 63.8283 28.0047 64.1016C28.0016 64.7517 27.9973 65.4019 27.9918 66.052C27.905 66.052 27.8181 66.052 27.7286 66.052C27.7286 65.4769 27.7286 64.9018 27.7286 64.3092C27.537 64.2428 27.3453 64.1763 27.1478 64.1079C24.8382 63.1758 22.9514 61.4394 21.1492 59.8277C20.9321 59.6412 20.715 59.4547 20.4913 59.2626C16.7057 55.8884 14.227 51.298 12.7275 46.632C12.6431 46.3695 12.5586 46.1069 12.4716 45.8365C11.2966 41.3799 11.4647 36.1207 12.7275 31.6935C12.7978 31.424 12.868 31.1544 12.9403 30.8766C14.0446 27.0508 16.2568 23.1969 19.0438 20.2407Z" fill="#DF0019"/>
<path d="M50.0987 20.4898C50.3619 20.7387 50.3619 20.7387 50.3876 21.4711C50.3846 21.7686 50.3815 22.0661 50.3784 22.3726C50.376 22.6708 50.3736 22.9689 50.3712 23.2761C50.3681 23.5069 50.3651 23.7377 50.3619 23.9754C50.2069 23.8981 50.0518 23.8207 49.8921 23.741C49.055 23.3625 48.3959 23.2439 47.467 23.2285C46.6716 23.7526 46.6716 23.7526 46.1511 24.4734C46.1511 24.7198 46.1511 24.9663 46.1511 25.2203C46.4279 24.9738 46.4279 24.9738 46.7103 24.7223C47.5974 24.1385 47.9884 24.0967 49.046 24.2244C49.6043 24.4092 49.6043 24.4092 50.0987 24.7223C50.2797 25.2281 50.2797 25.2281 50.3619 25.8427C50.7291 27.945 51.6658 29.7561 52.7429 31.6129C53.0242 32.2619 53.0405 32.7416 52.9937 33.4364C51.7123 33.288 50.5388 33.0456 49.3092 32.6895C49.3092 31.9501 49.3092 31.2106 49.3092 30.4487C49.1355 30.4487 48.9618 30.4487 48.7829 30.4487C48.8697 30.6131 48.9566 30.7774 49.046 30.9467C49.1824 31.914 49.1512 32.3069 48.5269 33.0999C47.4725 33.8747 46.7102 33.8784 45.4109 33.8877C45.2034 33.894 44.996 33.9002 44.7823 33.9067C44.2737 33.9212 43.7649 33.9285 43.2561 33.9344C43.2561 34.1809 43.2561 34.4274 43.2561 34.6813C42.6619 35.4683 42.3328 35.6568 41.3152 35.8173C40.0775 35.6356 39.6664 35.2485 38.7821 34.4323C38.916 35.5212 39.1139 36.3008 39.8348 37.1711C41.198 38.106 42.6884 38.1221 44.3088 37.918C44.9092 37.7113 45.4292 37.4713 45.9784 37.1642C46.4143 36.9221 46.4143 36.9221 47.2038 36.6731C47.2038 36.5088 47.2038 36.3445 47.2038 36.1752C47.4894 36.1867 47.7751 36.1983 48.0694 36.2102C48.4498 36.2195 48.8301 36.2286 49.2105 36.2374C49.3981 36.2457 49.5857 36.2541 49.779 36.2627C51.1601 36.2867 51.8785 36.0093 52.9937 35.1793C53.1674 35.0971 53.3411 35.0149 53.5201 34.9303C53.6196 36.6329 53.4406 37.8444 52.7305 39.4118C52.7305 40.316 53.0787 41.1769 53.3391 42.0416C53.3953 42.2392 53.4514 42.4367 53.5093 42.6402C53.6629 43.1484 53.8524 43.6466 54.0464 44.1423C54.4372 44.2656 54.4372 44.2656 54.8359 44.3913C55.0774 45.367 55.1424 46.2844 55.1485 47.2856C55.1522 47.5661 55.1559 47.8466 55.1598 48.1357C55.0991 48.8728 55.0991 48.8728 54.5728 49.6198C53.9477 49.5575 53.9477 49.5575 53.2569 49.3708C52.7665 48.6419 52.5986 47.9106 52.4344 47.0678C52.3903 46.8457 52.3462 46.6236 52.3008 46.3948C52.2689 46.2266 52.237 46.0584 52.2042 45.8852C51.6984 45.9051 51.6984 45.9051 51.1515 46.1341C50.7035 46.8191 50.3666 47.5276 50.0093 48.2582C49.5724 48.8728 49.5724 48.8728 48.8641 49.0829C48.6636 49.0958 48.4631 49.1086 48.2565 49.1218C48.1927 48.9536 48.1289 48.7855 48.0632 48.6122C47.4381 46.9054 47.4381 46.9054 46.1511 45.6362C45.3234 45.4362 45.3234 45.4362 44.572 45.3872C44.3115 45.9623 44.0509 46.5375 43.7825 47.13C43.4351 47.13 43.0877 47.13 42.7298 47.13C42.5995 47.623 42.5995 47.623 42.4666 48.1259C41.7768 48.1067 41.2999 47.9907 40.758 47.5774C39.6702 46.479 39.1661 45.271 38.596 43.8817C38.0764 42.7589 37.3468 41.4716 36.1504 40.9057C36.324 40.4127 36.4977 39.9197 36.6767 39.4118C36.8073 39.5081 36.9379 39.6044 37.0725 39.7036C39.4017 41.4137 39.4017 41.4137 42.2034 42.1505C42.2034 41.9862 42.2034 41.8219 42.2034 41.6526C42.0104 41.625 41.8174 41.5974 41.6185 41.569C39.6933 41.1335 38.008 39.7104 36.9399 38.1669C36.2247 36.8926 35.5667 35.6254 35.3608 34.1834C35.4911 34.0601 35.4911 34.0601 35.624 33.9344C35.4242 33.841 35.2244 33.7476 35.0185 33.6514C34.7569 33.524 34.4954 33.3965 34.2259 33.2653C33.9663 33.1411 33.7068 33.0169 33.4394 32.8889C32.6499 32.3906 32.3348 32.0051 31.9395 31.1957C31.8394 30.097 31.8122 29.6335 32.4659 28.7059C33.239 28.6126 33.239 28.6126 34.0449 28.7059C34.4901 29.0852 34.4901 29.0852 34.8345 29.4528C34.8768 29.2544 34.9191 29.056 34.9627 28.8516C35.1571 27.9515 35.3576 27.0528 35.5582 26.1539C35.6247 25.8417 35.6912 25.5294 35.7597 25.2076C35.8275 24.9076 35.8954 24.6075 35.9653 24.2983C36.0259 24.0219 36.0866 23.7455 36.1491 23.4607C36.5475 22.3607 37.138 21.887 38.2249 21.3826C42.0895 20.0171 46.0532 19.3483 50.0987 20.4898Z" fill="#F0D499"/>
<path d="M36.5339 1.43341C37.4482 2.06566 38.2766 2.77148 39.0454 3.55942C40.1615 3.22184 41.2507 2.88272 42.3187 2.42347C46.5537 0.806831 50.9927 1.44896 55.1321 2.96811C58.0242 4.18947 59.9112 6.05844 61.2346 8.7412C61.7244 10.8898 61.5477 12.8519 60.3628 14.7633C58.2218 17.4851 55.9314 18.7179 52.4675 19.4938C52.1201 19.4938 51.7727 19.4938 51.4148 19.4938C51.5016 19.6581 51.5885 19.8224 51.6779 19.9917C51.6879 20.4841 51.6812 20.9768 51.6666 21.469C51.661 21.7696 51.6554 22.0702 51.6497 22.3798C51.6358 23.0095 51.6188 23.6391 51.5983 24.2686C51.5596 26.8312 52.1414 28.7841 53.4379 31.0244C53.9295 31.936 54.244 32.6499 54.3097 33.6853C54.326 33.9084 54.3423 34.1314 54.3591 34.3613C54.4341 36.1196 54.1739 37.3802 53.257 38.9138C52.9938 38.1669 52.9938 38.1669 53.257 37.4199C53.2747 37.0313 53.2794 36.6419 53.2734 36.2529C53.2711 36.0516 53.2687 35.8504 53.2663 35.6431C53.2617 35.4135 53.2617 35.4135 53.257 35.1792C53.0507 35.3384 52.8445 35.4976 52.632 35.6616C51.5455 36.4692 50.9507 36.4578 49.5725 36.4552C49.2414 36.4558 48.9103 36.4565 48.5691 36.4571C47.7303 36.424 47.7303 36.424 47.2039 36.1751C47.2039 36.3394 47.2039 36.5037 47.2039 36.673C45.3392 37.9858 43.7232 38.4632 41.414 38.1669C40.2246 37.7378 39.4968 37.1836 38.7822 36.1906C38.5061 35.3905 38.4559 34.7704 38.5191 33.9343C38.6307 34.0421 38.7423 34.15 38.8573 34.2611C39.6902 35.0092 40.178 35.3958 41.3318 35.5993C42.2499 35.4992 42.2499 35.4992 42.845 34.8057C42.9807 34.6003 43.1164 34.3949 43.2563 34.1833C43.1694 34.019 43.0826 33.8546 42.9931 33.6853C43.3228 33.6789 43.6526 33.6725 43.9923 33.6659C44.4269 33.6519 44.8614 33.6376 45.2959 33.6231C45.513 33.6196 45.7301 33.616 45.9538 33.6124C46.9645 33.5738 47.5597 33.5485 48.4047 32.9929C48.8228 32.3824 48.8993 32.0992 48.8488 31.3823C48.8271 31.0742 48.8054 30.7661 48.783 30.4487C48.9567 30.4487 49.1304 30.4487 49.3093 30.4487C49.5725 30.9466 49.5725 30.9466 49.5725 32.4405C50.7015 32.7691 51.8306 33.0977 52.9938 33.4364C52.486 31.8351 51.8171 30.4081 50.9943 28.9286C50.2396 27.455 50.0402 26.332 50.0989 24.7222C48.23 24.3598 48.23 24.3598 46.5131 24.9557C46.3068 25.1251 46.1005 25.2946 45.888 25.4692C45.9551 24.5391 46.0545 24.0803 46.7105 23.3685C47.7119 22.8535 48.2229 22.9481 49.3093 23.2284C49.6567 23.4749 50.0041 23.7214 50.362 23.9753C50.2752 22.9072 50.1883 21.8391 50.0989 20.7387C46.3797 19.7334 42.9256 20.188 39.3086 21.2366C39.0599 21.2883 38.8113 21.34 38.555 21.3932C37.8436 21.586 37.4662 21.737 36.94 22.2325C36.3883 23.4432 36.1377 24.6791 35.8873 25.9671C35.8095 26.3259 35.7307 26.6844 35.6508 27.0428C35.4558 27.9273 35.2735 28.8136 35.0978 29.7017C34.9417 29.5795 34.7857 29.4572 34.6249 29.3312C33.8732 28.8433 33.3581 28.8973 32.466 28.9548C32.0628 29.7177 32.1424 30.3532 32.2028 31.1956C32.7407 32.3023 33.3535 32.7217 34.4892 33.2652C34.7507 33.3926 35.0123 33.52 35.2818 33.6513C35.4816 33.7447 35.6814 33.8381 35.8873 33.9343C35.7136 34.0165 35.5399 34.0986 35.3609 34.1833C36.9302 37.9014 38.1623 39.9952 42.2035 41.6525C42.2035 41.8168 42.2035 41.9812 42.2035 42.1505C40.4959 42.4055 39.3416 41.5272 37.9927 40.6566C37.5455 40.3351 37.1013 40.0087 36.6768 39.6607C36.5031 40.0715 36.3294 40.4823 36.1505 40.9056C36.3082 40.9675 36.466 41.0295 36.6285 41.0933C38.0903 41.8825 38.8117 43.6558 39.4566 45.0603C39.9775 46.1864 40.4814 47.0172 41.414 47.8769C41.9839 48.112 41.9839 48.112 42.4667 48.1258C42.4939 47.9667 42.521 47.8075 42.549 47.6435C42.6087 47.474 42.6684 47.3045 42.7299 47.1299C42.9904 47.0478 43.251 46.9656 43.5194 46.881C43.3221 48.3126 43.3221 48.3126 42.7299 48.8728C41.8043 48.9071 41.1649 48.8219 40.4127 48.2844C39.1265 47.0216 38.5202 45.5625 37.8406 43.9516C37.3996 43.0028 36.919 42.3796 36.1505 41.6525C35.0282 41.7705 34.5412 42.4091 33.7819 43.1464C33.6082 43.1464 33.4345 43.1464 33.2555 43.1464C33.3424 43.3928 33.4292 43.6393 33.5187 43.8933C33.4293 44.4671 33.4293 44.4671 33.272 45.107C32.8434 46.8377 32.8434 46.8377 33.5105 48.4575C33.7294 48.7485 33.9516 49.0373 34.1766 49.324C34.2896 49.4728 34.4026 49.6216 34.519 49.7748C34.7969 50.14 35.0785 50.5025 35.3609 50.8646C35.1872 51.0289 35.0135 51.1932 34.8346 51.3625C34.2929 50.7893 33.7652 50.2058 33.2391 49.6197C33.0862 49.4583 32.9334 49.2968 32.7759 49.1305C31.7046 47.919 31.7046 47.919 31.6283 47.129C31.696 46.6165 31.8002 46.1353 31.9396 45.6361C32.2454 44.5381 32.3815 44.0131 31.8781 42.9742C31.4044 42.2229 30.9013 41.5017 30.377 40.7811C30.2001 40.5288 30.0232 40.2766 29.8409 40.0167C29.405 39.3967 28.9642 38.7805 28.5183 38.1669C27.0963 38.4154 25.9165 38.6885 24.6858 39.4429C24.4629 39.577 24.24 39.7112 24.0104 39.8494C23.8479 39.9515 23.6854 40.0535 23.518 40.1587C23.8961 39.2749 24.3372 38.8961 25.1793 38.3847C25.3791 38.2608 25.5789 38.137 25.7848 38.0093C26.8251 37.4456 27.834 36.9087 29.0447 37.171C29.5918 37.7093 29.9845 38.3245 30.3935 38.9605C30.5064 39.1282 30.6194 39.2959 30.7358 39.4686C31.3288 40.3532 31.9004 41.25 32.466 42.1505C33.3336 42.0019 33.8272 41.7318 34.4892 41.1857C34.6476 41.0579 34.806 40.9302 34.9693 40.7986C35.5516 40.2173 35.6216 39.6803 35.7228 38.8982C35.5516 37.1978 34.7751 35.7692 33.4365 34.619C30.6962 32.1841 29.6278 28.5053 28.5183 25.2202C28.3577 25.2073 28.197 25.1944 28.0314 25.1811C27.8196 25.1619 27.6078 25.1427 27.3895 25.1229C27.0753 25.0959 27.0752 25.0959 26.7546 25.0682C25.8327 24.9204 25.2727 24.5446 24.5707 23.9753C24.4567 23.7597 24.3427 23.544 24.2252 23.3218C23.6072 22.4989 23.0267 22.5302 22.0129 22.3589C20.701 22.0827 19.9926 21.4387 19.2084 20.443C18.4675 19.0733 18.622 17.7744 19.0604 16.3349C19.6744 15.3418 20.3696 14.6164 21.4125 14.0163C22.1301 13.851 22.1301 13.851 22.7284 13.7674C22.6524 13.6159 22.5764 13.4644 22.4981 13.3083C21.4325 10.928 21.1573 8.18923 22.054 5.70682C23.407 3.03907 25.7442 1.46964 28.4854 0.229386C31.2432 -0.292406 34.0966 0.0624255 36.5339 1.43341ZM24.363 3.78797C22.7493 5.67184 22.3131 7.5588 22.3696 9.95981C22.5617 11.6067 23.2524 13.053 24.0443 14.5143C23.6535 14.4681 23.6535 14.4681 23.2548 14.4209C22.0952 14.4165 21.4325 14.9301 20.5439 15.5841C19.7289 16.3569 19.5779 16.8909 19.5045 17.9844C19.5541 19.3216 19.884 20.1085 20.9026 21.0499C21.6734 21.6555 22.1769 21.8108 23.1725 21.8435C23.7781 21.8668 23.7781 21.8668 24.3075 21.9835C24.8145 22.5254 25.0375 23.057 25.3602 23.7264C26.1731 24.2391 26.3364 24.2838 27.2518 24.2554C27.5829 24.2452 27.914 24.2349 28.2552 24.2243C28.2117 23.9419 28.1683 23.6594 28.1236 23.3685C28.1025 23.1865 28.0815 23.0045 28.0598 22.817C28.0153 22.4337 27.9595 22.0515 27.8912 21.6713C27.7886 20.771 27.8141 20.2212 28.3909 19.4773C31.1433 17.0132 34.8877 15.4105 38.5191 14.5143C37.279 13.1456 35.7346 12.1861 33.822 11.9205C32.2986 11.8789 31.176 12.0945 29.8342 12.7715C31.7757 11.5062 33.2812 11.2679 35.6241 11.5266C37.169 12.0686 38.4573 12.9717 39.7856 13.8763C42.7347 15.8819 46.1279 17.4606 49.8357 17.004C51.5882 16.3538 52.7606 15.1353 53.5202 13.5184C53.198 14.9039 52.7669 15.7249 51.6779 16.7551C50.8062 17.2219 50.8062 17.2219 50.0989 17.502C50.1857 17.9128 50.2726 18.3236 50.362 18.7469C53.1639 18.9197 55.8711 17.8625 58.0435 16.226C59.4155 15.0456 60.4832 13.2514 60.6887 11.4858C60.7633 9.14399 59.9517 7.46733 58.2676 5.76226C55.6153 3.4886 51.6647 2.18859 48.1087 2.30853C47.8753 2.32079 47.6418 2.33304 47.4013 2.34567C47.0364 2.36381 47.0364 2.36381 46.6641 2.38232C44.3535 2.5274 42.3559 2.99827 40.3613 4.13517C39.5718 4.55532 39.5718 4.55532 38.9961 4.57088C38.3171 4.19432 37.942 3.6465 37.4664 3.06147C37.2927 3.06147 37.119 3.06147 36.94 3.06147C36.94 2.89715 36.94 2.73282 36.94 2.56352C36.4921 2.31697 36.0421 2.07386 35.5912 1.83216C35.3409 1.6964 35.0905 1.56064 34.8325 1.42077C31.1062 -0.240585 27.0309 1.08215 24.363 3.78797Z" fill="#13100F"/>
<path d="M27.4657 48.3748C28.5357 48.3337 29.4766 48.3222 30.3054 49.0211C30.7285 49.556 31.0911 50.1005 31.4462 50.6778C31.5758 50.8682 31.7054 51.0585 31.8389 51.2546C32.7371 52.6366 32.7371 52.6366 32.7035 53.5683C32.466 54.1012 32.466 54.1012 32.0548 54.8482C31.4391 56.1574 31.4394 57.6852 31.6765 59.0807C32.1814 59.7505 32.1814 59.7505 32.7292 60.3256C32.7889 60.5875 32.8486 60.8494 32.9101 61.1192C33.1692 61.8467 33.1692 61.8467 33.7583 62.0247C35.5799 62.4303 37.012 62.4032 38.7823 61.8195C38.8672 61.9464 38.9522 62.0733 39.0397 62.204C39.4241 62.7769 39.8105 63.3485 40.1969 63.9202C40.3305 64.12 40.4642 64.3198 40.6019 64.5256C40.7308 64.7158 40.8597 64.9059 40.9926 65.1018C41.1111 65.2779 41.2296 65.4539 41.3517 65.6352C41.6539 66.088 41.6539 66.088 42.2036 66.301C43.7218 66.4721 43.7218 66.4721 44.9834 65.7875C45.4908 64.8067 45.3824 64.3701 45.0985 63.3133C44.6338 62.5985 44.0801 61.9729 43.503 61.3371C43.3536 61.1668 43.2042 60.9965 43.0502 60.8211C42.6836 60.4044 42.3124 59.9911 41.9404 59.5787C44.7234 57.8235 49.679 57.9778 52.9281 57.9137C53.3434 57.8975 53.3434 57.8975 53.7671 57.881C55.6291 57.8778 55.6291 57.8778 56.3516 58.4537C57.2577 59.6136 57.7311 60.8657 57.7311 62.3174C56.9494 64.5358 54.5675 65.9836 52.4675 67.0479C51.1896 67.5747 49.8638 67.9467 48.5199 68.2928C48.3557 68.3371 48.1915 68.3815 48.0223 68.4272C44.2269 69.2105 40.0038 68.6514 36.644 66.8767C31.7931 63.8916 28.5892 59.8226 27.111 54.499C26.7135 52.4253 26.6642 50.3645 27.4657 48.3748Z" fill="#D0D0D0"/>
<path d="M19.5701 16.2571C19.8333 17.004 19.8333 17.004 19.8168 17.9688C19.8092 19.2815 20.0704 19.947 21.034 20.9254C21.7465 21.4652 22.2524 21.5479 23.1559 21.5789C23.7686 21.6091 23.7686 21.6091 24.3073 21.7345C24.8147 22.2766 25.037 22.8075 25.36 23.4773C26.1234 23.9588 26.3855 24.0503 27.2516 24.1309C27.5827 24.1617 27.9138 24.1925 28.2549 24.2243C28.1247 23.8006 28.1247 23.8006 27.9917 23.3684C27.6869 22.233 27.6773 21.1565 27.7286 19.9917C27.8154 19.9917 27.9023 19.9917 27.9917 19.9917C28.1244 20.5153 28.2557 21.0393 28.3865 21.5633C28.4598 21.8551 28.5331 22.1468 28.6086 22.4474C28.7813 23.2284 28.7813 23.2284 28.7813 23.9753C29.0418 23.9753 29.3024 23.9753 29.5708 23.9753C29.7445 24.7147 29.9182 25.4542 30.0972 26.2161C30.2756 26.0206 30.4541 25.8251 30.6379 25.6238C33.8185 22.201 37.8267 19.5191 42.791 19.2079C43.4234 19.1833 44.0541 19.1712 44.6871 19.167C44.8864 19.1656 45.0858 19.1642 45.2912 19.1627C46.4642 19.1772 47.415 19.3271 48.5196 19.7427C48.5196 19.8249 48.5196 19.907 48.5196 19.9917C48.2075 19.9981 47.8954 20.0045 47.5738 20.0111C44.6824 20.0967 42.0733 20.4371 39.3084 21.2366C39.0607 21.2879 38.8131 21.3393 38.5579 21.3922C37.8451 21.5855 37.4669 21.736 36.9398 22.2325C36.3881 23.4431 36.1375 24.6791 35.8871 25.9671C35.8092 26.3258 35.7304 26.6844 35.6506 27.0427C35.4556 27.9272 35.2733 28.8136 35.0975 29.7017C34.9415 29.5794 34.7854 29.4571 34.6246 29.3312C33.873 28.8432 33.3579 28.8972 32.4658 28.9548C32.0625 29.7177 32.1422 30.3532 32.2026 31.1955C32.7404 32.3023 33.3532 32.7216 34.4889 33.2651C34.7505 33.3926 35.0121 33.52 35.2816 33.6512C35.4814 33.7446 35.6812 33.838 35.8871 33.9343C35.6265 34.0575 35.6265 34.0575 35.3607 34.1832C36.93 37.9014 38.162 39.9951 42.2033 41.6525C42.2033 41.8168 42.2033 41.9811 42.2033 42.1504C40.4957 42.4055 39.3414 41.5271 37.9925 40.6566C37.5453 40.335 37.1011 40.0087 36.6766 39.6607C36.5029 40.0715 36.3292 40.4823 36.1502 40.9055C36.308 40.9675 36.4657 41.0294 36.6283 41.0933C38.0901 41.8824 38.8114 43.6558 39.4564 45.0603C39.9773 46.1863 40.4812 47.0172 41.4138 47.8768C41.9836 48.112 41.9836 48.112 42.4665 48.1258C42.4936 47.9666 42.5208 47.8074 42.5487 47.6434C42.6084 47.474 42.6682 47.3045 42.7297 47.1299C42.9902 47.0477 43.2508 46.9656 43.5192 46.8809C43.3218 48.3125 43.3218 48.3125 42.7297 48.8727C41.8041 48.9071 41.1647 48.8219 40.4125 48.2843C39.1262 47.0215 38.52 45.5624 37.8403 43.9516C37.3994 43.0028 36.9188 42.3796 36.1502 41.6525C35.028 41.7704 34.5409 42.4091 33.7816 43.1463C33.608 43.1463 33.4343 43.1463 33.2553 43.1463C33.3421 43.3928 33.429 43.6393 33.5185 43.8932C33.429 44.467 33.429 44.467 33.2717 45.107C32.8432 46.8377 32.8432 46.8377 33.5102 48.4574C33.7292 48.7484 33.9514 49.0372 34.1764 49.324C34.2894 49.4728 34.4024 49.6215 34.5187 49.7748C34.7966 50.1399 35.0783 50.5025 35.3607 50.8645C35.187 51.0288 35.0133 51.1932 34.8344 51.3625C34.2927 50.7892 33.7649 50.2058 33.2388 49.6197C33.086 49.4582 32.9332 49.2968 32.7757 49.1305C31.7044 47.919 31.7044 47.919 31.628 47.1289C31.6958 46.6165 31.8 46.1353 31.9394 45.6361C32.2452 44.5381 32.3813 44.0131 31.8779 42.9742C31.4042 42.2229 30.9011 41.5016 30.3768 40.7811C30.1999 40.5288 30.023 40.2765 29.8407 40.0166C29.4048 39.3966 28.964 38.7804 28.5181 38.1668C27.0961 38.4154 25.9163 38.6885 24.6856 39.4428C24.4627 39.577 24.2398 39.7111 24.0102 39.8494C23.8477 39.9514 23.6852 40.0535 23.5177 40.1586C23.8959 39.2749 24.337 38.8961 25.179 38.3847C25.3789 38.2608 25.5787 38.1369 25.7846 38.0093C26.8248 37.4455 27.8338 36.9087 29.0445 37.1709C29.5916 37.7092 29.9843 38.3245 30.3932 38.9604C30.5062 39.1281 30.6192 39.2958 30.7356 39.4686C31.3285 40.3532 31.9002 41.2499 32.4658 42.1504C33.3334 42.0018 33.827 41.7317 34.4889 41.1856C34.6474 41.0579 34.8058 40.9302 34.969 40.7986C35.5514 40.2173 35.6214 39.6802 35.7226 38.8982C35.5514 37.1977 34.7748 35.7691 33.4362 34.6189C30.696 32.184 29.6276 28.5053 28.5181 25.2202C28.3574 25.2072 28.1967 25.1943 28.0312 25.181C27.8194 25.1618 27.6076 25.1427 27.3893 25.1229C27.075 25.0958 27.075 25.0958 26.7544 25.0682C25.8325 24.9203 25.2725 24.5446 24.5704 23.9753C24.4565 23.7596 24.3425 23.5439 24.225 23.3217C23.607 22.4988 23.0265 22.5302 22.0127 22.3589C20.7008 22.0826 19.9924 21.4387 19.2082 20.443C18.6461 19.4106 18.5786 18.3902 18.7805 17.253C19.1753 16.615 19.1753 16.615 19.5701 16.2571Z" fill="#0F0C0B"/>
<path d="M52.6485 57.9605C52.9417 57.947 53.235 57.9335 53.5372 57.9196C55.6269 57.8865 55.6269 57.8865 56.3712 58.4506C57.267 59.6052 57.7311 60.8791 57.7311 62.3175C57.2453 63.6962 56.2879 64.6705 54.9348 65.3519C54.5544 65.5098 54.1701 65.6596 53.7834 65.8032C53.5531 65.893 53.3227 65.9829 53.0854 66.0755C50.5444 66.9789 47.6877 67.5164 45.0986 66.5501C45.0986 65.5542 45.0986 65.5542 45.3268 64.7499C45.3775 63.3872 44.7066 62.7592 43.8156 61.7418C43.52 61.3902 43.2246 61.0385 42.9294 60.6866C42.7968 60.5334 42.6642 60.3802 42.5276 60.2224C42.2036 59.8278 42.2036 59.8278 41.9404 59.3298C42.7736 59.1678 43.6071 59.0075 44.4406 58.8475C44.674 58.802 44.9074 58.7566 45.1479 58.7098C47.6586 58.2296 50.0883 58.0114 52.6485 57.9605Z" fill="#FDFDFD"/>
<path d="M52.7306 38.4158C52.8174 38.6623 52.9043 38.9087 52.9937 39.1627C52.6029 39.4092 52.6029 39.4092 52.2042 39.6606C52.3779 39.2498 52.5516 38.839 52.7306 38.4158ZM36.6767 39.4117C36.8074 39.508 36.938 39.6042 37.0725 39.7034C37.4471 39.9751 37.8254 40.2423 38.2065 40.5058C38.6751 40.8312 39.1333 41.1699 39.5881 41.5124C41.015 42.2824 43.0039 41.8281 44.5721 41.6524C44.3984 41.3238 44.2247 40.9951 44.0457 40.6565C44.29 40.8209 44.5342 40.9852 44.7859 41.1545C46.0622 41.8431 47.3514 41.8642 48.7829 41.6524C49.58 41.2449 49.58 41.2449 50.0988 40.6565C50.3571 40.4031 50.6188 40.1524 50.8883 39.9096C51.062 39.9096 51.2357 39.9096 51.4147 39.9096C51.6752 39.8275 51.9358 39.7453 52.2042 39.6606C52.3779 39.7428 52.5516 39.825 52.7306 39.9096C53.0287 40.8107 53.2875 41.7136 53.535 42.6279C53.5894 42.8169 53.6439 43.006 53.7 43.2007C53.7476 43.3752 53.7953 43.5496 53.8444 43.7293C53.9111 43.8656 53.9777 44.0018 54.0464 44.1422C54.4373 44.2654 54.4373 44.2654 54.836 44.3912C55.0774 45.3668 55.1424 46.2842 55.1485 47.2855C55.1522 47.566 55.156 47.8465 55.1598 48.1355C55.0992 48.8727 55.0992 48.8727 54.5728 49.6196C53.9478 49.5574 53.9478 49.5574 53.2569 49.3706C52.7666 48.6417 52.5986 47.9104 52.4345 47.0676C52.3683 46.7345 52.3683 46.7345 52.3008 46.3946C52.269 46.2264 52.2371 46.0583 52.2042 45.885C51.6985 45.905 51.6985 45.905 51.1515 46.134C50.7036 46.8189 50.3666 47.5275 50.0093 48.258C49.5724 48.8727 49.5724 48.8727 48.8641 49.0828C48.6636 49.0956 48.4631 49.1084 48.2565 49.1217C48.1928 48.9535 48.129 48.7853 48.0633 48.6121C47.4381 46.9052 47.4381 46.9052 46.1511 45.636C45.3235 45.4361 45.3235 45.4361 44.5721 45.3871C44.3115 45.9622 44.051 46.5373 43.7825 47.1299C43.4351 47.1299 43.0877 47.1299 42.7298 47.1299C42.643 47.4585 42.5561 47.7872 42.4666 48.1258C41.7769 48.1066 41.2999 47.9906 40.758 47.5773C39.6702 46.4788 39.1662 45.2708 38.5961 43.8815C38.0765 42.7588 37.3469 41.4715 36.1504 40.9055C36.3241 40.4125 36.4978 39.9196 36.6767 39.4117Z" fill="#1C1A15"/>
<path d="M42.1706 16.3661C44.8497 17.6706 46.8111 17.8234 49.8356 17.751C49.9659 18.8602 49.9659 18.8602 50.0988 19.9918C49.8393 19.9379 49.8393 19.9379 49.5745 19.8829C44.4946 18.9452 39.5821 19.3613 35.0977 21.9836C33.345 23.1648 31.8621 24.4948 30.4818 26.0537C30.355 26.1895 30.2281 26.3253 30.0974 26.4651C30.0105 26.4651 29.9237 26.4651 29.8342 26.4651C29.7473 25.6435 29.6605 24.8219 29.571 23.9754C29.3105 23.9754 29.0499 23.9754 28.7815 23.9754C28.6478 23.5455 28.5167 23.1148 28.3867 22.6838C28.3134 22.4441 28.2401 22.2043 28.1646 21.9573C27.8593 20.6831 27.8593 20.6831 27.9919 19.9918C31.4151 16.8532 37.7794 14.141 42.1706 16.3661Z" fill="#FBFBFB"/>
<path d="M28.7816 38.167C29.5344 38.9546 30.1124 39.8606 30.7225 40.7501C30.8979 40.9873 31.0733 41.2244 31.254 41.4688C32.1334 42.747 32.6197 43.5811 32.3119 45.1169C32.2473 45.3305 32.1827 45.5441 32.1161 45.7642C31.8671 46.6377 31.7461 47.3047 32.2296 48.1122C32.3619 48.2621 32.4942 48.412 32.6305 48.5665C32.773 48.731 32.9155 48.8955 33.0623 49.065C33.2129 49.2327 33.3636 49.4003 33.5188 49.5731C33.6694 49.7456 33.82 49.9181 33.9752 50.0959C34.3466 50.5204 34.7208 50.9425 35.0978 51.3626C34.6636 51.7734 34.2293 52.1842 33.7819 52.6075C33.1895 51.9451 32.6973 51.3088 32.2471 50.5505C31.6671 49.6014 31.1854 48.8997 30.3606 48.126C29.4241 47.9072 29.4241 47.9072 28.4197 47.9081C26.6764 47.8337 26.6764 47.8337 25.9777 47.2882C25.135 46.3902 24.4641 45.3862 23.8133 44.358C23.4173 43.7349 22.9826 43.1388 22.5476 42.5396C22.3437 42.2446 22.1403 41.9492 21.939 41.6526C23.2309 39.9247 26.3814 37.2441 28.7816 38.167Z" fill="#F3D69B"/>
<path d="M52.4673 71.5295C57.4677 71.5295 57.4677 71.5295 59.0467 72.5254C59.5919 73.2562 59.632 73.7798 59.5237 74.6573C59.5037 74.8476 59.4837 75.0379 59.4631 75.234C59.2842 75.8506 59.0306 76.1018 58.5204 76.509C58.6941 76.6682 58.8678 76.8274 59.0467 76.9914C59.7541 78.0161 59.7587 78.8024 59.5731 79.9947C59.0385 81.287 58.638 81.3084 57.2045 81.9865C55.6412 81.9865 54.0779 81.9865 52.4673 81.9865C52.4673 78.5357 52.4673 75.0849 52.4673 71.5295Z" fill="#E1041D"/>
<path d="M38.519 51.8604C40.5388 52.8915 41.2142 54.6366 41.9403 56.5909C42.0387 56.8111 42.1371 57.0313 42.2385 57.2581C42.4667 57.8358 42.4667 57.8358 42.4667 58.5827C42.1736 58.7111 41.8805 58.8395 41.5785 58.9718C40.3968 59.5267 39.3499 60.221 38.2826 60.9509C37.3439 61.5798 36.7687 61.594 35.6241 61.5704C35.6919 59.9461 35.8403 58.862 36.94 57.5868C35.6119 58.6338 35.1324 59.7944 34.5714 61.3215C34.3108 61.2393 34.0503 61.1571 33.7818 61.0725C33.8688 59.3442 33.9803 57.8879 34.8345 56.342C34.7487 56.4771 34.6629 56.6122 34.5744 56.7514C34.4019 57.0186 34.4019 57.0186 34.2259 57.2912C34.0565 57.5555 34.0565 57.5555 33.8836 57.8251C33.5384 58.3063 33.1781 58.6858 32.7291 59.0807C32.251 57.7236 32.2434 56.3803 32.8772 55.066C34.0487 53.0939 35.9588 51.311 38.519 51.8604Z" fill="#EED298"/>
<path d="M16.6753 74.2682C17.728 74.2682 18.7807 74.2682 19.8334 74.2682C20.1265 74.2528 20.4196 74.2374 20.7216 74.2215C21.734 74.271 22.184 74.4595 22.9915 75.0151C23.0784 74.8919 23.1652 74.7686 23.2547 74.6417C23.9229 74.1675 24.5057 74.1568 25.3252 74.1204C25.995 74.2968 26.4665 74.5479 26.9418 75.0325C27.559 76.1706 27.3306 77.5841 27.2846 78.8275C27.2787 79.1307 27.2728 79.4338 27.2666 79.7461C27.2512 80.4932 27.2295 81.2396 27.2024 81.9864C26.5076 81.9864 25.8128 81.9864 25.097 81.9864C25.0101 80.1788 24.9233 78.3713 24.8338 76.509C24.1824 76.3857 24.1824 76.3857 23.5179 76.26C23.4311 78.1497 23.3442 80.0394 23.2547 81.9864C22.4731 81.9864 21.6915 81.9864 20.8861 81.9864C20.7993 80.1788 20.7124 78.3713 20.623 76.509C20.1887 76.4268 19.7545 76.3446 19.3071 76.26C19.2202 78.1497 19.1334 80.0394 19.0439 81.9864C18.2623 81.9864 17.4806 81.9864 16.6753 81.9864C16.6753 79.4394 16.6753 76.8924 16.6753 74.2682Z" fill="#E20922"/>
<path d="M28.7815 74.268C29.7465 74.268 30.7115 74.268 31.6764 74.268C32.0076 74.2423 32.3387 74.2167 32.6798 74.1902C33.6155 74.1886 33.7605 74.2525 34.5549 74.8282C35.4489 75.9559 35.4152 76.9491 35.4432 78.345C35.453 78.6653 35.4628 78.9856 35.473 79.3156C35.3437 80.3864 35.0214 80.9086 34.3082 81.7373C33.7174 82.0167 33.3833 82.0196 32.7292 82.0173C32.4523 82.0183 32.4523 82.0183 32.1699 82.0193C31.6764 81.9862 31.6764 81.9862 31.1501 81.7373C31.1501 82.7232 31.1501 83.7091 31.1501 84.7249C30.3685 84.7249 29.5868 84.7249 28.7815 84.7249C28.7815 81.2742 28.7815 77.8234 28.7815 74.268Z" fill="#E20820"/>
<path d="M57.4677 44.3911C58.8361 45.0717 59.8909 45.8075 60.9713 46.8497C61.1184 46.9912 61.2655 47.1326 61.4171 47.2783C65.2707 51.0736 68.3692 56.0501 68.6528 61.4147C68.5682 63.0511 67.9336 64.4777 66.8928 65.7718C64.3784 67.569 61.9241 67.5044 58.8587 67.1995C56.4409 66.8805 56.4409 66.8805 55.3623 66.3009C55.6283 66.1006 55.8943 65.9003 56.1683 65.694C57.1134 64.9294 57.8359 64.0839 58.579 63.1449C59.3027 62.2497 60.0942 61.4132 60.889 60.5745C61.1522 61.0724 61.1522 61.0724 61.0864 61.9749C61.0759 63.0601 61.4066 63.7782 62.0589 64.6621C62.4891 65.1328 62.4891 65.1328 63.3728 65.3672C64.5557 65.2887 65.0129 65.0646 65.8894 64.3091C67.2284 62.3364 67.5805 60.1516 67.2053 57.8357C66.1167 54.054 63.3968 50.9295 60.6259 48.1257C60.2953 47.7691 59.9663 47.4113 59.6389 47.052C59.1169 46.4822 58.5852 45.9405 58.0105 45.4181C57.4677 44.8891 57.4677 44.8891 57.4677 44.3911Z" fill="#CDCDCD"/>
<path d="M52.7307 39.1628C53.64 39.8275 53.7982 40.6222 54.0466 41.6526C54.0466 41.9812 54.0466 42.3099 54.0466 42.6485C54.4537 42.6562 54.4537 42.6562 54.869 42.664C58.0559 43.0589 60.5584 45.0509 62.7314 47.13C63.0704 47.4492 63.0704 47.4492 63.4161 47.7748C63.6244 47.9729 63.8327 48.1709 64.0473 48.3749C64.1983 48.5184 64.3493 48.6618 64.5048 48.8096C67.8011 52.1602 70.0489 56.9841 69.9164 61.5501C69.7927 63.6132 69.2552 65.2592 67.6496 66.7056C65.7309 68.2503 63.3188 68.2199 60.9198 68.0969C59.461 67.958 58.0316 67.5755 56.6784 67.048C56.5481 66.8015 56.5481 66.8015 56.4152 66.55C56.6164 66.586 56.8175 66.6219 57.0248 66.659C61.7486 67.4487 61.7486 67.4487 66.1527 66.0521C67.6219 64.9946 68.0887 63.6889 68.3425 62.0082C68.622 56.7712 65.3084 51.8476 61.8268 48.0792C61.4305 47.6763 61.0303 47.2767 60.626 46.881C60.4455 46.7039 60.2651 46.5267 60.0791 46.3442C58.4567 44.8662 56.6004 44.0195 54.5729 43.1464C54.5729 43.4751 54.5729 43.8037 54.5729 44.1423C54.3992 44.1423 54.2255 44.1423 54.0466 44.1423C53.9597 44.3067 53.8729 44.471 53.7834 44.6403C53.6068 43.9922 53.4316 43.3438 53.2571 42.6952C53.2068 42.5114 53.1566 42.3277 53.1049 42.1384C52.9011 41.3774 52.7307 40.6981 52.7307 39.9098C52.557 39.8276 52.3833 39.7454 52.2043 39.6608C52.378 39.4965 52.5517 39.3321 52.7307 39.1628Z" fill="#0B0808"/>
<path d="M5.09547 71.5293C6.30399 71.9671 6.87181 72.6926 7.46406 73.77C7.39827 74.4858 7.39827 74.4858 7.20088 75.0149C6.5061 75.0149 5.81131 75.0149 5.09547 75.0149C4.92177 74.5219 4.74807 74.029 4.56911 73.5211C4.04288 73.5105 3.51629 73.5109 2.99005 73.5211C2.53852 73.9482 2.69262 74.5104 2.69192 75.0927C2.69158 75.3604 2.69124 75.6281 2.69089 75.9038C2.69191 76.1856 2.69293 76.4674 2.69397 76.7577C2.69296 77.0395 2.69194 77.3213 2.69089 77.6116C2.6914 78.0131 2.6914 78.0131 2.69192 78.4228C2.69221 78.6702 2.69251 78.9176 2.69282 79.1726C2.65888 79.7364 2.65888 79.7364 2.99005 79.9944C3.51629 80.0046 4.04288 80.005 4.56911 79.9944C4.74281 79.5836 4.91651 79.1728 5.09547 78.7495C5.8771 78.7495 6.65874 78.7495 7.46406 78.7495C7.35803 80.1539 6.88003 80.75 5.885 81.7372C4.77814 82.2608 3.40272 82.1183 2.20052 81.9862C1.28279 81.5884 0.765714 81.0242 0.324157 80.1583C-0.0754222 79.0038 0.00888087 77.8379 0.0128552 76.6332C0.00861451 76.3762 0.00437386 76.1191 4.7085e-06 75.8542C-0.00116342 74.1413 0.214336 73.2584 1.41098 71.9494C2.61318 71.3097 3.74727 71.3734 5.09547 71.5293Z" fill="#E20A22"/>
<path d="M13.2541 74.2682C14.0831 74.5941 14.6847 74.9833 15.0963 75.762C15.1187 76.2317 15.1245 76.7021 15.122 77.1723C15.1212 77.4515 15.1203 77.7307 15.1194 78.0184C15.1172 78.3111 15.115 78.6038 15.1128 78.9054C15.1116 79.2 15.1104 79.4946 15.1092 79.7982C15.1061 80.5276 15.1017 81.257 15.0963 81.9864C14.1313 81.9864 13.1664 81.9864 12.2014 81.9864C11.9982 81.998 11.7949 82.0095 11.5856 82.0214C9.77629 82.0935 9.77629 82.0935 8.87875 81.6285C8.33121 80.6632 8.26188 79.8173 8.51689 78.7497C9.27001 77.8062 9.27001 77.8062 10.0959 77.5049C11.0719 77.4086 12.0139 77.4309 12.9909 77.5049C12.8172 77.0941 12.6435 76.6833 12.4645 76.26C11.5985 76.3544 11.5985 76.3544 10.8855 76.7579C10.1826 76.7931 9.48424 76.7685 8.78006 76.7579C8.84379 75.8737 8.95046 75.3753 9.5367 74.6728C10.7649 74.0686 11.8974 74.0765 13.2541 74.2682Z" fill="#E1051E"/>
<path d="M38.2558 15.7592C38.041 15.8626 38.041 15.8626 37.8219 15.968C37.165 16.2855 36.5097 16.6059 35.8544 16.9263C35.6291 17.0346 35.4038 17.1429 35.1717 17.2545C33.8676 17.8952 32.7642 18.5576 31.6764 19.4939C31.7198 19.6222 31.7633 19.7506 31.808 19.8829C31.9795 20.6739 31.9551 21.4268 31.9396 22.2326C31.9396 22.4791 31.9396 22.7255 31.9396 22.9795C32.1567 22.733 32.3738 22.4865 32.5975 22.2326C35.6324 19.3674 39.6825 18.7062 43.7794 18.6993C44.8583 18.7107 45.8822 18.7994 46.9407 18.9959C46.9407 19.0781 46.9407 19.1602 46.9407 19.2449C46.6445 19.2513 46.3484 19.2577 46.0432 19.2643C40.4006 19.4392 35.5369 20.8775 31.5633 24.8663C31.1976 25.2578 30.8365 25.6532 30.4818 26.0537C30.355 26.1895 30.2281 26.3253 30.0974 26.4651C30.0105 26.4651 29.9237 26.4651 29.8342 26.4651C29.7473 25.6435 29.6605 24.8219 29.571 23.9754C29.3105 23.9754 29.0499 23.9754 28.7815 23.9754C28.6478 23.5455 28.5167 23.1148 28.3867 22.6838C28.3134 22.4441 28.2401 22.2043 28.1646 21.9573C27.8593 20.6831 27.8593 20.6831 27.9919 19.9918C30.0808 18.0766 32.9518 16.9906 35.6241 16.0082C35.904 15.9052 36.1838 15.8022 36.4722 15.696C37.2364 15.5018 37.5224 15.5516 38.2558 15.7592Z" fill="#D0D0D0"/>
<path d="M74.8374 74.2682C75.919 74.7798 76.5061 75.1987 76.9429 76.26C77.0098 77.0958 76.9662 77.9099 76.9429 78.7497C75.4664 78.7497 73.99 78.7497 72.4688 78.7497C72.6425 79.1605 72.8162 79.5713 72.9952 79.9946C73.7184 80.0326 74.1893 80.0558 74.8374 79.7301C75.5364 79.4201 75.9522 79.5544 76.6797 79.7456C76.6094 80.543 76.4604 80.9393 75.923 81.5662C74.698 82.1921 73.5679 82.2109 72.2057 81.9864C71.3714 81.5711 70.7911 81.0528 70.3634 80.2436C70.3096 79.5546 70.2782 78.8792 70.2647 78.1895C70.2549 78.0024 70.2451 77.8153 70.2349 77.6225C70.2178 76.5941 70.2961 75.9563 70.9946 75.1435C72.1709 74.0674 73.2546 74.1005 74.8374 74.2682Z" fill="#E1051E"/>
<path d="M36.9399 74.2681C37.6347 74.2681 38.3295 74.2681 39.0453 74.2681C39.1322 76.0756 39.219 77.8832 39.3085 79.7455C39.7427 79.8277 40.177 79.9098 40.6244 79.9945C41.0588 79.5835 40.9469 79.0889 40.9708 78.523C40.9819 78.2767 40.9929 78.0304 41.0042 77.7766C41.0198 77.3878 41.0198 77.3878 41.0356 76.9912C41.047 76.7311 41.0583 76.471 41.07 76.203C41.098 75.558 41.1249 74.9131 41.1507 74.2681C41.9324 74.2681 42.714 74.2681 43.5193 74.2681C43.5193 76.8151 43.5193 79.3621 43.5193 81.9863C42.4666 81.9863 41.4139 81.9863 40.3612 81.9863C39.8464 82.0256 39.3316 82.0649 38.8171 82.1078C38.1335 81.9598 37.678 81.7124 37.2005 81.2236C36.5844 80.0837 36.8116 78.6717 36.8577 77.4269C36.8636 77.1238 36.8695 76.8207 36.8756 76.5084C36.8911 75.7613 36.9128 75.0148 36.9399 74.2681Z" fill="#E20A22"/>
<path d="M13.5172 25.7183C13.604 25.8826 13.6908 26.0469 13.7803 26.2162C13.5552 26.7959 13.5552 26.7959 13.2046 27.5233C10.6154 33.2184 9.92992 39.8744 11.6749 45.8852C11.7655 46.2272 11.8559 46.5692 11.9463 46.9112C12.8942 50.3428 14.4902 53.3857 16.6095 56.3081C16.9385 56.8401 16.9385 56.8401 16.9385 57.587C12.6161 53.9329 9.75729 47.8348 9.30632 42.3995C8.973 36.5082 9.80149 30.6457 13.5172 25.7183Z" fill="#E21027"/>
<path d="M82.4696 74.2683C83.2651 74.6132 83.6983 74.9327 84.3118 75.5131C84.3447 76.1667 84.3447 76.1667 84.3118 76.758C83.617 76.758 82.9223 76.758 82.2064 76.758C82.2064 76.5115 82.2064 76.265 82.2064 76.0111C81.7722 76.0111 81.3379 76.0111 80.8905 76.0111C80.8905 76.3397 80.8905 76.6684 80.8905 77.007C81.0683 77.0673 81.2461 77.1277 81.4292 77.1898C83.9508 78.0861 83.9508 78.0861 84.575 78.9988C84.7496 79.9694 84.6644 80.3615 84.098 81.1929C83.2088 82.0341 82.3977 82.0427 81.1866 82.0798C80.0591 82.0708 79.6769 82.0516 78.7193 81.4418C78.2311 80.6995 78.1297 80.3516 78.2588 79.4967C79.147 79.4501 79.147 79.4501 80.101 79.4967C80.2747 79.7432 80.4484 79.9897 80.6274 80.2437C81.3074 80.306 81.3074 80.306 81.9432 80.2437C81.9432 79.9972 81.9432 79.7507 81.9432 79.4967C81.7214 79.4155 81.4995 79.3343 81.2709 79.2507C80.9825 79.1419 80.6942 79.0331 80.3971 78.921C80.1101 78.8141 79.8231 78.7072 79.5274 78.5971C78.7851 78.2519 78.7851 78.2519 78.2588 77.5049C78.1537 76.7343 78.092 76.2505 78.2588 75.5131C79.4234 74.1214 80.6601 73.9996 82.4696 74.2683Z" fill="#E20921"/>
<path d="M49.0463 74.2683C49.8418 74.6132 50.275 74.9327 50.8885 75.5131C50.9214 76.1667 50.9214 76.1667 50.8885 76.758C50.1937 76.758 49.4989 76.758 48.7831 76.758C48.7831 76.5115 48.7831 76.265 48.7831 76.0111C48.3488 76.0111 47.9146 76.0111 47.4672 76.0111C47.4672 76.3397 47.4672 76.6684 47.4672 77.007C47.645 77.0673 47.8227 77.1277 48.0059 77.1898C50.5274 78.0861 50.5274 78.0861 51.1517 78.9988C51.3263 79.9694 51.241 80.3615 50.6747 81.1929C49.7854 82.0341 48.9743 82.0427 47.7633 82.0798C46.6358 82.0708 46.2536 82.0516 45.296 81.4418C44.8077 80.6995 44.7063 80.3516 44.8354 79.4967C45.7236 79.4501 45.7236 79.4501 46.6777 79.4967C46.8514 79.7432 47.0251 79.9897 47.204 80.2437C47.884 80.306 47.884 80.306 48.5199 80.2437C48.5199 79.9972 48.5199 79.7507 48.5199 79.4967C48.298 79.4155 48.0762 79.3343 47.8476 79.2507C47.5592 79.1419 47.2708 79.0331 46.9737 78.921C46.6867 78.8141 46.3997 78.7072 46.104 78.5971C45.3618 78.2519 45.3618 78.2519 44.8354 77.5049C44.7303 76.7343 44.6686 76.2505 44.8354 75.5131C46.0001 74.1214 47.2368 73.9996 49.0463 74.2683Z" fill="#E20921"/>
<path d="M28.5181 60.3254C29.168 60.9315 29.7416 61.5146 30.2616 62.2239C32.0754 64.5246 34.1826 66.1457 36.7526 67.6167C36.9881 67.7576 37.2235 67.8985 37.4661 68.0436C37.4661 68.1258 37.4661 68.208 37.4661 68.2926C37.1319 68.3048 36.7978 68.317 36.4535 68.3296C33.692 68.4398 30.9868 68.6362 28.2549 69.0395C28.3195 68.6544 28.3195 68.6544 28.3854 68.2615C28.5918 66.7001 28.5459 65.1329 28.5345 63.5621C28.5333 63.2505 28.5321 62.9388 28.5309 62.6178C28.5278 61.8536 28.5235 61.0895 28.5181 60.3254Z" fill="#D0D0D0"/>
<path d="M48.2563 2.31443C51.7438 2.20896 55.352 3.4292 58.0618 5.50928C59.6743 6.97414 60.6216 8.57562 60.7244 10.7173C60.6666 12.8571 59.7546 14.5379 58.2262 16.0839C57.502 16.7008 56.7624 17.097 55.8885 17.5019C56.2624 16.5586 56.7168 15.6725 57.2044 14.7787C58.1826 12.87 58.3862 10.7537 57.8315 8.67787C57.5825 8.16195 57.3029 7.74633 56.9412 7.29392C56.7203 7.0147 56.7203 7.0147 56.495 6.72983C54.2477 4.13032 51.5943 3.27917 48.2563 2.5634C48.2563 2.48124 48.2563 2.39908 48.2563 2.31443Z" fill="#CECECE"/>
<path d="M36.6767 39.4119C36.8074 39.5081 36.938 39.6044 37.0725 39.7036C38.5614 40.7834 39.9595 41.7288 41.7758 42.2439C43.139 42.6413 44.2179 43.352 45.3616 44.1424C45.1625 44.2746 44.9633 44.4068 44.7581 44.5431C43.96 45.2099 43.6225 45.7865 43.1739 46.6944C42.9719 47.0968 42.9719 47.0968 42.7658 47.5074C42.6177 47.8136 42.6177 47.8136 42.4666 48.126C41.1948 47.9573 40.7449 47.6267 39.9582 46.7041C39.358 45.8191 38.9971 44.8589 38.5961 43.8817C38.0765 42.759 37.3469 41.4717 36.1504 40.9057C36.3241 40.4127 36.4978 39.9198 36.6767 39.4119Z" fill="#CDCDCD"/>
<path d="M38.3227 11.1618C39.4429 11.7271 40.5473 12.3175 41.6507 12.9114C45.6165 15.0672 45.6165 15.0672 50.0989 15.5101C50.8989 15.2559 51.4808 14.9404 52.2043 14.5142C52.378 14.5142 52.5517 14.5142 52.7307 14.5142C52.2731 15.616 51.4625 16.1822 50.4073 16.7774C48.3231 17.6036 45.9509 16.9143 43.9554 16.1792C41.5452 15.1725 39.3187 13.7356 37.159 12.3211C36.0414 11.6335 35.3002 11.4583 33.9464 11.4643C33.5118 11.4624 33.5118 11.4624 33.0684 11.4604C32.177 11.5285 31.4569 11.7245 30.6238 12.0245C30.6238 11.8601 30.6238 11.6958 30.6238 11.5265C32.9811 10.0992 35.7845 10.0538 38.3227 11.1618Z" fill="#CCCCCC"/>
<path d="M28.7816 38.167C29.5344 38.9546 30.1124 39.8606 30.7225 40.7501C30.8979 40.9873 31.0733 41.2244 31.254 41.4688C32.1334 42.747 32.6197 43.5811 32.3119 45.1169C32.2473 45.3305 32.1827 45.5441 32.1161 45.7642C31.8671 46.6377 31.7461 47.3047 32.2296 48.1122C32.3619 48.2621 32.4942 48.412 32.6305 48.5665C32.773 48.731 32.9155 48.8955 33.0623 49.065C33.2129 49.2327 33.3636 49.4003 33.5188 49.5731C33.6694 49.7456 33.82 49.9181 33.9752 50.0959C34.3466 50.5204 34.7208 50.9425 35.0978 51.3626C34.8373 51.6091 34.5767 51.8556 34.3083 52.1095C34.1835 51.8785 34.0586 51.6474 33.93 51.4093C33.5646 50.7768 33.2085 50.3219 32.6676 49.8075C31.1259 48.3189 30.6954 47.2483 30.6732 45.2161C30.6785 45.018 30.6839 44.8199 30.6894 44.6158C30.718 43.163 30.4362 42.1226 29.5711 40.9057C28.6697 40.1477 27.83 40.0285 26.6587 40.0683C25.8496 40.2121 25.3955 40.6073 24.8339 41.1547C24.4544 41.8728 24.546 42.5034 24.5543 43.3021C24.5567 43.598 24.559 43.8939 24.5615 44.1988C24.5645 44.4266 24.5676 44.6545 24.5707 44.8893C23.8175 44.2139 23.2261 43.5344 22.6627 42.7108C22.5256 42.5118 22.3886 42.3128 22.2474 42.1078C22.1456 41.9576 22.0438 41.8074 21.939 41.6526C23.2309 39.9247 26.3814 37.2441 28.7816 38.167Z" fill="#C7AF7E"/>
<path d="M39.7855 7.27845C41.2327 8.06497 42.6793 8.87617 44.0457 9.78376C44.0457 9.86592 44.0457 9.94808 44.0457 10.0327C42.0569 9.9226 40.4096 9.2624 38.5848 8.53889C37.9997 8.31012 37.4144 8.08187 36.8289 7.85421C36.5721 7.75279 36.3154 7.65137 36.0509 7.54688C34.1418 6.84733 31.5907 6.54379 29.6707 7.32611C27.9073 8.53387 27.1048 10.1262 26.4128 12.0245C26.326 12.0245 26.2391 12.0245 26.1496 12.0245C25.9923 9.97759 26.5899 8.47028 27.9096 6.84275C31.2934 3.40152 36.1067 5.43128 39.7855 7.27845Z" fill="#131313"/>
<path d="M65.6264 72.2764C66.3212 72.2764 67.016 72.2764 67.7319 72.2764C67.7319 72.9337 67.7319 73.591 67.7319 74.2682C68.2529 74.2682 68.774 74.2682 69.3109 74.2682C69.3221 74.766 69.3217 75.2642 69.3109 75.762C69.2241 75.8442 69.1372 75.9263 69.0477 76.011C68.6135 76.011 68.1793 76.011 67.7319 76.011C67.8187 77.3256 67.9056 78.6402 67.995 79.9946C68.3424 80.0767 68.6898 80.1589 69.0477 80.2435C69.0477 80.8187 69.0477 81.3938 69.0477 81.9864C68.6754 82.0135 68.3023 82.0327 67.9292 82.0486C67.7216 82.0602 67.514 82.0717 67.3001 82.0836C66.6791 81.9864 66.6791 81.9864 66.0788 81.6518C65.3579 80.5979 65.5158 79.5388 65.5606 78.314C65.5654 78.0691 65.5701 77.8242 65.575 77.5719C65.5874 76.9684 65.6047 76.3653 65.6264 75.762C65.279 75.762 64.9317 75.762 64.5737 75.762C64.5737 75.269 64.5737 74.7761 64.5737 74.2682C64.9211 74.2682 65.2685 74.2682 65.6264 74.2682C65.6264 73.6109 65.6264 72.9536 65.6264 72.2764Z" fill="#E1071F"/>
<path d="M38.519 33.9343C38.6306 34.0422 38.7422 34.15 38.8572 34.2611C39.6821 35.002 40.1746 35.3947 41.3152 35.5993C42.2486 35.5 42.2486 35.5 42.8614 34.8057C43.5193 34.1833 43.5193 34.1833 44.5227 34.1055C44.7995 34.1312 45.0764 34.1568 45.3616 34.1833C45.1173 35.0153 44.8538 35.4119 44.1773 36.0039C42.9617 36.5584 41.9523 36.6059 40.6244 36.4241C39.802 36.0506 39.802 36.0506 39.3085 35.6771C40.1593 36.6091 41.0069 36.8784 42.2857 37.0154C44.004 36.8501 45.1579 36.2268 46.2827 34.9925C46.5057 34.7254 46.7264 34.4566 46.9407 34.1833C48.2565 34.6812 48.2565 34.6812 48.8487 34.9613C50.3249 35.4057 51.6276 35.3473 52.9937 34.6812C53.2543 34.6812 53.5148 34.6812 53.7833 34.6812C53.7833 35.2564 53.7833 35.8315 53.7833 36.4241C53.6964 36.4241 53.6096 36.4241 53.5201 36.4241C53.3898 35.8079 53.3898 35.8079 53.2569 35.1792C53.0506 35.3384 52.8444 35.4976 52.6319 35.6616C51.5454 36.4692 50.9506 36.4579 49.5724 36.4552C49.0758 36.4562 49.0758 36.4562 48.5691 36.4571C47.7302 36.4241 47.7302 36.4241 47.2038 36.1751C47.2038 36.3394 47.2038 36.5037 47.2038 36.673C45.3392 37.9858 43.7232 38.4633 41.4139 38.1669C40.2245 37.7378 39.4968 37.1836 38.7822 36.1907C38.506 35.3905 38.4559 34.7704 38.519 33.9343Z" fill="#292724"/>
<path d="M64.5737 16.7551C68.5487 18.4366 71.6821 23.8909 73.2123 27.5807C73.8961 29.3225 74.5437 31.0964 74.8376 32.9385C74.8665 33.1073 74.8953 33.2761 74.925 33.45C75.392 36.8546 75.8827 42.1614 73.7849 45.1382C73.8039 44.9797 73.8229 44.8211 73.8425 44.6578C74.7755 35.4141 73.1957 26.8843 66.9423 19.4938C66.316 18.7937 65.6645 18.1179 64.9993 17.4505C64.5737 17.0041 64.5737 17.0041 64.5737 16.7551Z" fill="#E3162D"/>
<path d="M36.9398 2.56341C35.9728 2.86835 35.7118 2.63417 34.8268 2.24927C33.9361 1.93366 33.0629 1.93321 32.1204 1.94097C31.9242 1.94204 31.728 1.9431 31.5259 1.9442C29.8403 1.99319 28.591 2.3858 27.2023 3.31033C26.92 3.4952 26.6378 3.68006 26.3469 3.87053C23.9165 6.16976 23.1385 8.58536 22.9914 11.7755C22.0748 10.3486 22.2833 8.49401 22.5874 6.90296C23.3146 4.56641 25.0317 2.82148 27.2023 1.56751C30.6496 0.100723 33.8397 0.784721 36.9398 2.56341Z" fill="#CFCFCF"/>
<path d="M48.783 30.4487C48.9567 30.4487 49.1304 30.4487 49.3093 30.4487C49.674 31.1386 49.6219 31.677 49.5725 32.4405C49.3988 32.687 49.2251 32.9335 49.0461 33.1874C50.3541 33.7935 51.2426 34.0206 52.7306 33.9344C52.9912 33.4414 53.2517 32.9484 53.5202 32.4405C53.607 32.4405 53.6939 32.4405 53.7833 32.4405C53.6226 34.2958 53.6226 34.2958 53.1583 34.9147C52.0655 35.5907 50.8279 35.5757 49.5725 35.4282C48.9777 35.2091 48.447 34.9536 47.8958 34.6502C47.4709 34.393 47.4709 34.393 46.9407 34.4323C46.6491 34.7388 46.3715 35.0575 46.1019 35.3815C44.9746 36.629 44.1 37.0694 42.3516 37.28C41.2056 37.1468 40.2468 36.8224 39.3086 36.1751C39.2217 35.9287 39.1349 35.6822 39.0454 35.4282C39.5718 35.6772 40.0981 35.9262 40.6245 36.1751C41.8212 36.2793 42.9072 36.3086 44.0293 35.8795C44.6416 35.3705 44.9907 34.8667 45.3617 34.1833C44.6669 34.1833 43.9721 34.1833 43.2562 34.1833C43.1694 34.019 43.0826 33.8547 42.9931 33.6854C43.3228 33.679 43.6526 33.6726 43.9923 33.6659C44.4268 33.6519 44.8614 33.6377 45.2959 33.6232C45.513 33.6196 45.7301 33.6161 45.9538 33.6125C46.9645 33.5739 47.5597 33.5486 48.4047 32.9929C48.8227 32.3825 48.8993 32.0992 48.8488 31.3824C48.8271 31.0743 48.8053 30.7662 48.783 30.4487Z" fill="#050404"/>
<path d="M27.9919 60.3254C28.1656 60.3254 28.3393 60.3254 28.5183 60.3254C28.9035 61.5752 28.8299 62.8306 28.8308 64.1223C28.834 64.3742 28.8372 64.6262 28.8405 64.8858C28.8436 66.3608 28.7071 67.6266 28.2551 69.0395C28.4759 68.9885 28.6968 68.9375 28.9243 68.8849C31.0122 68.4424 33.041 68.2002 35.1799 68.1059C35.4234 68.0948 35.6669 68.0838 35.9177 68.0724C37.6577 68.0097 37.6577 68.0097 38.2558 68.2926C38.2558 68.4569 38.2558 68.6213 38.2558 68.7906C37.9479 68.83 37.9479 68.83 37.6337 68.8701C36.6839 68.9925 35.7346 69.1172 34.7852 69.2418C34.4624 69.2831 34.1396 69.3243 33.807 69.3668C31.6608 69.6507 29.568 70.0372 27.4656 70.5334C27.2602 70.5818 27.0549 70.6302 26.8434 70.6801C26.7013 70.7138 26.5592 70.7476 26.4128 70.7824C26.5507 70.3698 26.5507 70.3698 26.6914 69.9489C27.7049 66.7354 27.9676 63.67 27.9919 60.3254Z" fill="#181818"/>
<path d="M29.3077 48.8728C29.5683 48.8728 29.8288 48.8728 30.0973 48.8728C30.6516 49.4445 31.0495 50.1275 31.4789 50.7868C31.6031 50.9664 31.7273 51.1459 31.8552 51.3309C32.7382 52.6683 32.7382 52.6683 32.6951 53.5498C32.6195 53.7318 32.5438 53.9138 32.4659 54.1013C32.3627 54.4094 32.2596 54.7175 32.1533 55.0349C31.6763 55.8441 31.6763 55.8441 30.8374 56.0775C30.5932 56.0826 30.3489 56.0878 30.0973 56.0931C28.7002 53.904 28.886 51.6008 29.0446 49.1218C29.1314 49.0396 29.2182 48.9575 29.3077 48.8728Z" fill="#FBFBFB"/>
<path d="M41.9404 59.8276C42.527 60.3987 42.9672 61.0825 43.4372 61.7416C43.5717 61.9212 43.7062 62.1008 43.8448 62.2858C44.8068 63.6162 44.8068 63.6162 44.9412 64.5348C44.8353 65.0561 44.8353 65.0561 44.5392 65.5074C43.8128 65.9426 43.3114 65.8954 42.4667 65.803C41.9465 65.3197 41.9465 65.3197 41.5127 64.6671C41.3604 64.4402 41.2081 64.2133 41.0511 63.9795C40.9103 63.7596 40.7695 63.5398 40.6245 63.3133C40.5027 63.1422 40.3809 62.9712 40.2554 62.7949C39.9501 62.3485 39.9501 62.3485 39.5718 61.5705C39.7402 60.8534 40.0361 60.6276 40.608 60.1389C41.1508 59.8276 41.1508 59.8276 41.9404 59.8276Z" fill="#F0D399"/>
<path d="M52.7305 40.1587C53.7512 43.1914 54.4036 45.6756 54.3095 48.8728C54.049 48.7906 53.7884 48.7085 53.52 48.6238C53.5102 48.4765 53.5003 48.3292 53.4902 48.1774C53.3568 46.5274 53.3568 46.5274 52.4673 45.1382C51.8094 45.0344 51.8094 45.0344 51.1514 45.1382C50.8909 45.1382 50.6303 45.1382 50.3619 45.1382C50.1353 41.9271 50.1353 41.9271 50.9869 40.9679C51.9848 40.1587 51.9848 40.1587 52.7305 40.1587Z" fill="#CCCCCC"/>
<path d="M61.1523 74.2681C61.8471 74.2681 62.5419 74.2681 63.2578 74.2681C63.2578 76.8151 63.2578 79.3621 63.2578 81.9863C62.563 81.9863 61.8682 81.9863 61.1523 81.9863C61.1523 79.4393 61.1523 76.8923 61.1523 74.2681Z" fill="#E1011A"/>
<path d="M49.5724 41.9016C49.988 44.0148 50.3884 46.523 49.046 48.3749C48.5197 48.126 48.5197 48.126 48.1743 47.1923C47.7956 46.1723 47.2573 45.627 46.4143 44.8893C46.284 44.6736 46.1537 44.458 46.0195 44.2357C45.5522 43.5358 45.0688 43.2862 44.3088 42.8975C44.3088 42.8153 44.3088 42.7332 44.3088 42.6485C44.6257 42.6155 44.9426 42.5824 45.269 42.5484C45.6837 42.504 46.0983 42.4596 46.5129 42.4151C46.7219 42.3935 46.9309 42.3718 47.1462 42.3495C47.9445 42.2631 48.8275 41.9016 49.5724 41.9016Z" fill="#EBD096"/>
<path d="M37.2031 40.1587C37.9413 40.4992 38.6491 40.8715 39.3579 41.2635C40.3716 41.8025 41.3666 42.1722 42.4811 42.4802C42.993 42.6484 42.993 42.6484 43.7826 43.1464C43.6957 43.475 43.6089 43.8037 43.5194 44.1423C43.172 44.2244 42.8246 44.3066 42.4667 44.3913C42.293 45.2129 42.1193 46.0345 41.9403 46.881C41.0938 46.148 40.5749 45.4223 40.0323 44.4691C39.1691 43.0254 38.159 41.8429 36.9399 40.6566C37.0268 40.4923 37.1136 40.328 37.2031 40.1587Z" fill="#FAFAFA"/>
<path d="M36.6766 22.7304C36.1555 25.0309 35.6344 27.3315 35.0975 29.7017C34.9238 29.5374 34.7501 29.373 34.5712 29.2037C34.391 29.0693 34.2109 28.9348 34.0253 28.7962C33.3339 27.9936 33.3062 27.2597 33.3046 26.2627C33.3038 26.0848 33.3031 25.9068 33.3022 25.7235C33.3442 24.8324 33.4659 24.2928 34.0222 23.5668C35.5812 22.385 35.5812 22.385 36.6766 22.7304Z" fill="#201F1D"/>
<path d="M49.8358 41.9016C50.2756 42.639 50.4482 43.2388 50.5266 44.0801C50.5463 44.2791 50.566 44.4781 50.5863 44.6831C50.6056 44.9084 50.6056 44.9084 50.6253 45.1383C51.5372 45.015 51.5372 45.015 52.4676 44.8893C53.3914 45.9888 53.6469 46.7591 53.7115 48.162C53.7471 48.3906 53.7471 48.3906 53.7834 48.6239C53.9571 48.7061 54.1308 48.7882 54.3098 48.8729C54.1795 46.5313 54.1795 46.5313 54.0466 44.1424C54.3072 44.2245 54.5677 44.3067 54.8362 44.3914C55.0776 45.367 55.1426 46.2844 55.1487 47.2857C55.1524 47.5662 55.1561 47.8467 55.16 48.1357C55.0993 48.8729 55.0993 48.8729 54.573 49.6198C53.9479 49.5576 53.9479 49.5576 53.2571 49.3708C52.7668 48.6419 52.5988 47.9106 52.4347 47.0678C52.3906 46.8457 52.3465 46.6236 52.301 46.3948C52.2532 46.1426 52.2532 46.1426 52.2044 45.8852C51.3273 46.0477 51.3273 46.0477 50.6911 46.6477C50.5826 46.8069 50.474 46.9661 50.3621 47.1301C50.1884 47.0479 50.0148 46.9658 49.8358 46.8811C49.7842 46.098 49.7357 45.3147 49.6878 44.5314C49.673 44.3079 49.6582 44.0843 49.643 43.854C49.6303 43.6414 49.6176 43.4288 49.6045 43.2097C49.5921 43.0128 49.5797 42.8159 49.5669 42.6131C49.5726 42.1506 49.5726 42.1506 49.8358 41.9016Z" fill="#131313"/>
<path d="M20.886 15.2612C20.886 16.0082 20.886 16.0082 20.6228 16.5061C20.5109 17.6565 20.4746 18.6754 20.9682 19.7428C21.5324 20.3754 21.9833 20.7042 22.8547 20.8418C23.0898 20.8591 23.3249 20.8764 23.5671 20.8943C23.8042 20.9129 24.0414 20.9315 24.2857 20.9507C24.4665 20.9629 24.6473 20.9751 24.8336 20.9876C24.8784 21.1378 24.9232 21.288 24.9693 21.4428C25.343 22.6086 25.6316 23.4408 26.6759 24.2243C26.0837 24.0843 26.0837 24.0843 25.36 23.7264C25.208 23.4337 25.056 23.141 24.8994 22.8394C24.6653 22.3581 24.6653 22.3581 24.3073 21.9835C23.7798 21.8577 23.7798 21.8577 23.1888 21.8591C21.8416 21.819 21.2079 21.3022 20.2363 20.4615C19.4883 19.5896 19.4832 18.615 19.492 17.5108C19.633 16.596 20.2071 15.9034 20.886 15.2612Z" fill="#CDCDCD"/>
<path d="M31.6764 76.011C32.3508 76.0732 32.3508 76.0732 32.9923 76.26C33.3327 76.9042 33.2997 77.3927 33.3048 78.1117C33.3085 78.3527 33.3122 78.5938 33.3161 78.8421C33.2554 79.4966 33.2554 79.4966 32.7291 80.2436C31.4461 80.0257 31.4461 80.0257 31.15 79.7456C31.117 79.212 31.1038 78.6773 31.1007 78.1428C31.0969 77.8505 31.0932 77.5581 31.0894 77.2568C31.15 76.5089 31.15 76.5089 31.6764 76.011Z" fill="black"/>
<path d="M54.5728 77.5047C56.3718 77.4317 56.3718 77.4317 56.9413 77.5047C57.5085 78.3095 57.591 78.5632 57.4677 79.4965C57.2045 79.9477 57.2045 79.9477 56.6782 80.2434C55.9627 80.3048 55.2942 80.2769 54.5728 80.2434C54.5728 79.3396 54.5728 78.4358 54.5728 77.5047Z" fill="black"/>
<path d="M38.519 33.9343C38.6307 34.0422 38.7423 34.15 38.8573 34.2611C39.6821 35.002 40.1746 35.3947 41.3153 35.5993C42.2487 35.5 42.2487 35.5 42.8615 34.8057C43.5194 34.1833 43.5194 34.1833 44.5228 34.1055C44.7996 34.1312 45.0764 34.1568 45.3617 34.1833C45.1174 35.0153 44.8539 35.4119 44.1774 36.0039C42.9901 36.5454 41.9239 36.6492 40.6245 36.4241C40.0549 36.0545 40.0549 36.0545 39.5718 35.6771C39.0066 35.5016 39.0066 35.5016 38.519 35.4282C38.519 34.9352 38.519 34.4422 38.519 33.9343Z" fill="#21211F"/>
<path d="M46.6776 58.5826C45.786 59.7507 44.8928 60.8309 43.7827 61.8193C43.1747 61.0798 42.5668 60.3404 41.9404 59.5785C42.7098 59.0933 43.1276 58.9609 44.013 58.8005C44.3458 58.7379 44.3458 58.7379 44.6853 58.674C45.3595 58.5829 45.9976 58.5665 46.6776 58.5826Z" fill="#CDCDCD"/>
<path d="M45.0984 28.4568C45.244 28.5293 45.3895 28.6019 45.5394 28.6766C46.4061 29.0707 47.3111 29.3539 48.2185 29.653C48.7829 29.9506 48.7829 29.9506 48.9875 30.4359C49.0068 30.6044 49.0262 30.7729 49.0461 30.9465C49.0786 31.1879 49.1112 31.4292 49.1448 31.6779C49.0461 32.4404 49.0461 32.4404 48.5423 33.0969C47.4248 33.9065 46.5369 33.8875 45.1642 33.9031C44.8187 33.9156 44.8187 33.9156 44.4662 33.9284C43.2725 33.9634 43.2725 33.9634 42.7298 33.9342C42.4666 33.6852 42.4666 33.6852 42.4502 33.0473C42.4556 32.847 42.4611 32.6467 42.4666 32.4404C42.5535 32.6869 42.6403 32.9333 42.7298 33.1873C43.5085 33.2074 44.2867 33.2222 45.0655 33.234C45.2871 33.2402 45.5086 33.2465 45.7368 33.2529C45.9489 33.2554 46.1609 33.2578 46.3794 33.2602C46.6729 33.2661 46.6729 33.2661 46.9724 33.2721C47.1356 33.2441 47.2988 33.2161 47.467 33.1873C48.0741 32.4713 48.0741 32.4713 48.0098 31.5845C47.8182 30.6212 47.8182 30.6212 46.842 30.1685C46.6768 30.0947 46.5115 30.0209 46.3413 29.9448C45.6782 29.5892 45.4171 29.0952 45.0984 28.4568Z" fill="#A18D66"/>
<path d="M44.572 4.05735C48.0986 3.94559 50.9395 4.07421 53.7832 6.29812C54.3579 6.85636 54.8544 7.42497 55.3623 8.04094C55.2754 8.20527 55.1886 8.36959 55.0991 8.53889C54.9899 8.4333 54.8806 8.32771 54.7681 8.21892C51.8927 5.62962 48.4535 4.59227 44.572 4.30633C44.572 4.22417 44.572 4.14201 44.572 4.05735Z" fill="#D7D7D7"/>
<path d="M42.1869 25.3289C42.4556 25.5215 42.4556 25.5215 42.7297 25.7179C42.7297 25.8823 42.7297 26.0466 42.7297 26.2159C42.5231 26.1928 42.3165 26.1697 42.1037 26.1459C40.4259 26.0032 40.4259 26.0032 38.9609 26.6594C38.5165 27.159 38.1209 27.6707 37.7294 28.2077C37.6425 28.2077 37.5557 28.2077 37.4662 28.2077C37.3337 26.8917 37.6381 26.2384 38.5189 25.22C39.6545 24.368 40.9781 24.7693 42.1869 25.3289Z" fill="#16130E"/>
<path d="M57.2046 58.3337C57.7092 58.3623 58.2136 58.394 58.7179 58.4271C59.1392 58.4531 59.1392 58.4531 59.5691 58.4796C60.3106 58.5759 60.7793 58.7214 61.4154 59.0807C60.9831 59.4964 60.5498 59.9112 60.116 60.3255C59.7542 60.6722 59.7542 60.6722 59.3851 61.0258C58.7837 61.5704 58.7837 61.5704 58.5205 61.5704C58.4696 61.4202 58.4187 61.27 58.3663 61.1153C58.2977 60.9163 58.2292 60.7173 58.1586 60.5123C58.0914 60.3158 58.0243 60.1194 57.9551 59.9171C57.7436 59.3629 57.4948 58.8543 57.2046 58.3337Z" fill="#E8CC94"/>
<path d="M54.5728 73.2721C56.3163 73.2099 56.3163 73.2099 57.2045 73.7701C57.2868 74.517 57.2868 74.517 57.2045 75.2639C56.6782 75.7618 56.6782 75.7618 56.1662 75.8105C55.6351 75.7943 55.1039 75.7781 54.5728 75.7618C54.5728 74.9402 54.5728 74.1186 54.5728 73.2721Z" fill="black"/>
<path d="M50.6252 41.6526C51.6216 41.6945 52.0797 41.7901 52.8129 42.4462C53.2912 43.2003 53.4347 43.7706 53.5202 44.6403C53.3736 44.517 53.2271 44.3938 53.0761 44.2668C52.3671 43.8317 51.9796 43.8281 51.1516 43.8934C51.0648 44.1398 50.9779 44.3863 50.8884 44.6403C50.2766 43.7358 50.299 42.9555 50.3621 41.9016C50.4489 41.8194 50.5358 41.7372 50.6252 41.6526Z" fill="#FBFBFB"/>
<path d="M35.9561 41.4832C36.1826 41.567 36.1826 41.567 36.4136 41.6524C36.4136 42.6652 36.0078 42.9213 35.2951 43.6598C35.0875 43.8783 34.8799 44.0969 34.6659 44.3221C34.1133 44.8267 33.6959 45.1168 32.9923 45.387C32.9512 44.3154 32.9908 43.4677 33.7047 42.6007C35.1199 41.3712 35.1199 41.3712 35.9561 41.4832Z" fill="#C8C8C8"/>
<path d="M41.1506 59.8276C41.4112 59.8276 41.6717 59.8276 41.9402 59.8276C42.5268 60.3987 42.967 61.0825 43.437 61.7416C43.5715 61.9212 43.706 62.1008 43.8446 62.2858C44.8066 63.6162 44.8066 63.6162 44.941 64.5348C44.8351 65.0561 44.8351 65.0561 44.539 65.5074C43.8415 65.9253 43.2738 65.8539 42.4665 65.803C42.9929 65.4711 43.5192 65.1391 44.0456 64.8071C43.8886 64.0356 43.6429 63.5615 43.1234 62.9515C42.9937 62.7974 42.8639 62.6434 42.7302 62.4847C42.5943 62.3268 42.4585 62.1689 42.3185 62.0062C42.1816 61.8444 42.0447 61.6827 41.9037 61.516C41.5665 61.118 41.2272 60.7216 40.8875 60.3256C40.9743 60.1613 41.0611 59.9969 41.1506 59.8276Z" fill="#C3AC7C"/>
<path d="M58.5203 48.6238C59.1235 49.1488 59.5063 49.6411 59.869 50.3355C59.9566 50.4992 60.0441 50.6628 60.1343 50.8315C60.6123 51.9436 60.6676 53.0185 60.675 54.2101C60.6788 54.482 60.6825 54.7538 60.6863 55.0339C60.6232 55.8772 60.4168 56.5508 60.0993 57.3379C60.0125 57.3379 59.9256 57.3379 59.8362 57.3379C59.8337 57.1951 59.8312 57.0524 59.8287 56.9053C59.7684 54.117 59.6306 51.7257 58.5203 49.1217C58.5203 48.9574 58.5203 48.7931 58.5203 48.6238Z" fill="#1D1D1D"/>
<path d="M61.6784 71.0315C62.5462 71.1136 62.895 71.1865 63.5207 71.7784C63.4339 72.5993 63.3568 72.9293 62.7312 73.5212C61.8634 73.4391 61.5146 73.3662 60.8889 72.7743C60.9757 71.9534 61.0528 71.6234 61.6784 71.0315Z" fill="#E3172E"/>
<path d="M32.9924 24.9712C32.9766 25.5005 32.9533 26.0295 32.9266 26.5584C32.9144 26.853 32.9022 27.1477 32.8896 27.4512C32.7292 28.2079 32.7292 28.2079 32.1905 28.5599C31.9361 28.6321 31.9361 28.6321 31.6765 28.7058C30.8437 27.4029 30.8437 27.4029 31.035 26.5584C32.0505 24.9712 32.0505 24.9712 32.9924 24.9712Z" fill="#1F1F1F"/>
<path d="M47.7302 25.4692C48.1711 25.5405 48.6102 25.6231 49.0461 25.7182C49.3751 27.3677 49.3751 27.3677 48.7829 28.208C48.125 28.3013 48.125 28.3013 47.467 28.208C46.9407 27.461 46.9407 27.461 46.9407 26.4651C47.2012 26.4651 47.4618 26.4651 47.7302 26.4651C47.8171 26.3008 47.9039 26.1365 47.9934 25.9672C47.8197 25.885 47.646 25.8029 47.467 25.7182C47.5539 25.6361 47.6407 25.5539 47.7302 25.4692Z" fill="#0A0907"/>
<path d="M40.7396 27.4143C41.414 27.461 41.414 27.461 41.9403 27.9589C42.0299 28.7554 42.0775 29.2515 41.6113 29.9352C41.1508 30.1997 41.1508 30.1997 40.5915 30.1375C40.0981 29.9507 40.0981 29.9507 39.8349 29.7018C39.8242 29.2869 39.8236 28.8717 39.8349 28.4569C40.0954 28.4569 40.356 28.4569 40.6244 28.4569C40.6244 28.2926 40.6244 28.1282 40.6244 27.9589C40.3639 27.8768 40.1033 27.7946 39.8349 27.71C40.0981 27.461 40.0981 27.461 40.7396 27.4143Z" fill="#090806"/>
<path d="M49.4407 50.0554C50.0986 50.1177 50.0986 50.1177 50.625 50.6156C50.6908 51.238 50.6908 51.238 50.625 51.8605C50.0986 52.3584 50.0986 52.3584 49.4407 52.4207C48.7827 52.3584 48.7827 52.3584 48.2564 51.8605C48.1906 51.238 48.1906 51.238 48.2564 50.6156C48.7827 50.1177 48.7827 50.1177 49.4407 50.0554Z" fill="#090909"/>
<path d="M49.8356 53.6033C50.658 53.6966 50.658 53.6966 51.4146 53.8522C51.5791 54.428 51.5791 54.428 51.6778 55.0971C51.4173 55.4668 51.4173 55.4668 51.1514 55.844C50.4935 55.9218 50.4935 55.9218 49.8356 55.844C49.3092 55.3461 49.3092 55.3461 49.2434 54.7237C49.3092 54.1012 49.3092 54.1012 49.8356 53.6033Z" fill="#080808"/>
<path d="M49.8358 41.9016C50.2756 42.639 50.4482 43.2388 50.5266 44.0801C50.5463 44.2791 50.566 44.4781 50.5863 44.6831C50.6056 44.9084 50.6056 44.9084 50.6253 45.1383C50.9727 45.0561 51.3201 44.974 51.678 44.8893C51.9386 45.259 51.9386 45.259 52.2044 45.6362C52.047 45.6978 51.8896 45.7595 51.7274 45.823C51.0763 46.1749 50.7744 46.5451 50.3621 47.1301C50.1884 47.0479 50.0148 46.9658 49.8358 46.8811C49.7842 46.098 49.7357 45.3147 49.6878 44.5314C49.673 44.3079 49.6582 44.0843 49.643 43.854C49.6303 43.6414 49.6176 43.4288 49.6045 43.2097C49.5921 43.0128 49.5797 42.8159 49.5669 42.6131C49.5726 42.1506 49.5726 42.1506 49.8358 41.9016Z" fill="#0D0D0C"/>
<path d="M23.781 3.80835C23.8678 4.05483 23.9547 4.30132 24.0441 4.55527C23.8867 4.78122 23.7293 5.00716 23.5671 5.23995C22.6375 6.64276 22.6319 8.41933 22.4651 10.0327C22.3782 10.0327 22.2914 10.0327 22.2019 10.0327C22.115 9.45758 22.0282 8.88245 21.9387 8.28989C21.8519 8.28989 21.765 8.28989 21.6755 8.28989C21.7885 6.79312 22.087 5.56319 22.9914 4.3063C23.252 4.14198 23.5125 3.97765 23.781 3.80835Z" fill="#181818"/>
<path d="M52.7304 40.1587C52.9137 40.687 53.0941 41.2163 53.2732 41.7459C53.374 42.0405 53.4747 42.3352 53.5785 42.6387C53.7831 43.3954 53.7831 43.3954 53.52 43.8933C53.3354 43.616 53.1508 43.3387 52.9607 43.053C52.3063 42.175 51.7568 41.8767 50.625 41.6525C51.8397 40.1587 51.8397 40.1587 52.7304 40.1587Z" fill="#C6C6C6"/>
<path d="M49.3093 32.6895C50.5907 32.8379 51.7642 33.0803 52.9938 33.4364C53.0806 33.1899 53.1675 32.9434 53.257 32.6895C53.0267 33.9032 53.0267 33.9032 52.7306 34.1833C51.1974 34.3017 50.1704 33.989 48.783 33.4364C48.9567 33.1899 49.1304 32.9434 49.3093 32.6895Z" fill="#292825"/>
<path d="M54.0464 44.1421C54.3069 44.2243 54.5675 44.3064 54.8359 44.3911C55.0876 45.3865 55.1265 46.3102 55.1155 47.3321C55.1132 47.6212 55.1108 47.9104 55.1083 48.2083C55.1053 48.4276 55.1022 48.6468 55.0991 48.8726C54.8386 48.8726 54.578 48.8726 54.3096 48.8726C54.2227 47.3115 54.1359 45.7505 54.0464 44.1421Z" fill="#1B1B1B"/>
<path d="M27.2025 0.820557C27.3762 0.902718 27.5499 0.98488 27.7289 1.06953C26.958 1.82166 26.1644 2.54432 25.3439 3.24806C25.1725 3.39569 25.0012 3.54333 24.8247 3.69543C24.2906 4.06908 23.9039 4.20227 23.2549 4.3062C23.6457 3.4196 24.1722 2.91189 24.9326 2.28328C25.1355 2.11318 25.3384 1.94308 25.5474 1.76783C26.0912 1.36225 26.556 1.05221 27.2025 0.820557Z" fill="#0D0D0D"/>
<path d="M12.9909 78.7498C13.0403 79.3411 13.0403 79.3411 12.9909 79.9947C12.2014 80.4926 12.2014 80.4926 11.4941 80.3992C11.2933 80.3479 11.0924 80.2965 10.8855 80.2436C10.8855 79.8328 10.8855 79.422 10.8855 78.9988C11.5984 78.6615 12.2038 78.7336 12.9909 78.7498Z" fill="black"/>
<path d="M35.8872 22.4814C36.1477 22.5636 36.4083 22.6458 36.6767 22.7304C36.503 22.7304 36.3293 22.7304 36.1503 22.7304C36.0445 23.0462 36.0445 23.0462 35.9365 23.3684C35.6114 24.2588 35.2353 25.1053 34.8345 25.9671C34.3081 25.4691 34.3081 25.4691 34.1765 24.6444C34.3121 23.6982 34.3443 23.5694 35.0483 22.9794C35.3251 22.8151 35.6019 22.6507 35.8872 22.4814Z" fill="#383737"/>
<path d="M72.9951 76.011C73.5234 76.0824 74.0501 76.165 74.5742 76.26C74.5742 76.6708 74.5742 77.0816 74.5742 77.5048C73.8794 77.5048 73.1846 77.5048 72.4688 77.5048C72.699 76.2911 72.699 76.2911 72.9951 76.011Z" fill="black"/>
<path d="M41.4138 59.5786C42.2945 59.7187 42.6587 59.9318 43.2026 60.5969C43.3934 60.8282 43.3934 60.8282 43.5881 61.0642C43.7174 61.2261 43.8466 61.388 43.9798 61.5548C44.1131 61.7158 44.2464 61.8768 44.3838 62.0426C45.3615 63.243 45.3615 63.243 45.3615 63.8112C45.1009 63.8112 44.8404 63.8112 44.5719 63.8112C44.1279 63.2945 43.7402 62.793 43.3548 62.2395C43.2475 62.0914 43.1403 61.9433 43.0299 61.7907C42.5673 61.1423 42.2028 60.573 41.9402 59.8276C41.7665 59.7454 41.5928 59.6633 41.4138 59.5786Z" fill="#161513"/>
<path d="M32.4659 28.7059C33.2883 28.6592 33.2883 28.6592 34.0449 28.7059C34.1318 28.8702 34.2186 29.0346 34.3081 29.2039C33.787 29.3682 33.2659 29.5325 32.729 29.7018C32.6513 30.9523 32.733 31.6676 33.5186 32.6895C32.906 32.4577 32.5334 32.2777 32.1369 31.7714C31.8626 30.9714 31.8753 30.288 31.9395 29.4528C32.1132 29.2063 32.2869 28.9599 32.4659 28.7059Z" fill="#A18D66"/>
<path d="M32.9924 25.4692C33.0793 25.4692 33.1661 25.4692 33.2556 25.4692C33.2814 25.6554 33.3072 25.8415 33.3337 26.0333C33.5515 27.5636 33.5515 27.5636 34.3412 28.8771C34.5855 29.0388 34.5855 29.0388 34.8347 29.2039C33.9662 29.0395 33.0977 28.8752 32.2029 28.7059C32.4634 27.6378 32.724 26.5697 32.9924 25.4692Z" fill="#060604"/>
<path d="M13.517 25.7183C13.6039 25.8826 13.6907 26.0469 13.7802 26.2162C13.5366 26.8834 13.5366 26.8834 13.1716 27.6789C13.0532 27.9402 12.9348 28.2014 12.8128 28.4706C12.535 29.0553 12.2479 29.6299 11.938 30.1998C11.7643 30.1176 11.5906 30.0355 11.4116 29.9508C11.8869 28.3715 12.5318 27.0703 13.517 25.7183Z" fill="#E63145"/>
<path d="M59.5732 14.7632C59.66 15.0097 59.7469 15.2562 59.8364 15.5101C59.5036 15.8384 59.1687 16.1648 58.833 16.4904C58.6467 16.6724 58.4605 16.8544 58.2686 17.0419C57.7309 17.5019 57.7309 17.5019 56.9414 17.7509C57.4997 16.5026 58.3871 15.5112 59.5732 14.7632Z" fill="#0C0103"/>
<path d="M22.7283 42.8975C23.9233 43.9282 24.7596 45.0944 25.6232 46.3831C25.3627 46.7528 25.3627 46.7528 25.0969 47.13C24.7007 46.5187 24.3062 45.9066 23.9126 45.2938C23.7996 45.1199 23.6866 44.9459 23.5702 44.7667C22.7283 43.4518 22.7283 43.4518 22.7283 42.8975Z" fill="#250F0D"/>
<path d="M45.0984 28.4568C45.3162 28.5637 45.3162 28.5637 45.5384 28.6727C46.193 28.974 46.8557 29.231 47.5328 29.4838C47.7675 29.5717 48.0023 29.6597 48.2442 29.7503C48.4219 29.8164 48.5997 29.8825 48.7829 29.9506C48.7829 30.1971 48.7829 30.4436 48.7829 30.6976C46.1431 30.1542 46.1431 30.1542 45.4603 29.157C45.3408 28.9259 45.2214 28.6949 45.0984 28.4568Z" fill="#544A35"/>
<path d="M66.6788 54.8481C67.1799 55.5592 67.388 56.0759 67.6328 56.8866C67.7014 57.111 67.7699 57.3353 67.8405 57.5664C67.8914 57.7375 67.9423 57.9086 67.9947 58.0848C67.7342 58.0027 67.4736 57.9205 67.2052 57.8358C66.9461 57.2844 66.9461 57.2844 66.7446 56.6065C66.6754 56.3835 66.6062 56.1604 66.5349 55.9306C66.4157 55.3461 66.4157 55.3461 66.6788 54.8481Z" fill="#C1C1C1"/>
<path d="M34.8345 46.3831C35.656 46.7169 36.1004 47.0437 36.6109 47.7369C36.7799 47.9598 36.7799 47.9598 36.9522 48.1871C37.2031 48.6238 37.2031 48.6238 37.2031 49.3707C37.0294 49.3707 36.8557 49.3707 36.6767 49.3707C36.3388 48.8847 36.0242 48.384 35.7227 47.8769C35.5565 47.5996 35.3902 47.3223 35.219 47.0366C35.0921 46.8209 34.9652 46.6053 34.8345 46.3831Z" fill="#2D2D2D"/>
<path d="M31.6764 17.2529C31.3481 18.1848 30.9739 18.3662 30.1303 18.9179C29.8975 19.073 29.6648 19.228 29.425 19.3877C28.7815 19.7427 28.7815 19.7427 27.9919 19.7427C28.3697 19.4205 28.7482 19.0991 29.1269 18.7779C29.3376 18.5988 29.5482 18.4197 29.7653 18.2352C30.9725 17.2529 30.9725 17.2529 31.6764 17.2529Z" fill="#202020"/>
<path d="M33.5187 11.7757C33.5187 11.8579 33.5187 11.94 33.5187 12.0247C33.344 12.0548 33.1693 12.085 32.9893 12.1161C31.799 12.3298 30.6766 12.5325 29.571 13.0206C30.8384 11.7189 31.711 10.8962 33.5187 11.7757Z" fill="#272727"/>
<path d="M36.9399 57.0891C37.1136 57.1713 37.2873 57.2534 37.4663 57.3381C37.3034 57.5075 37.1406 57.677 36.9728 57.8516C36.3262 58.6972 36.1373 59.32 35.8872 60.3258C35.6266 60.1615 35.3661 59.9971 35.0977 59.8278C35.4338 58.5848 35.9328 57.9416 36.9399 57.0891Z" fill="#2D271C"/>
<path d="M57.2045 16.5061C57.3782 16.5883 57.5519 16.6704 57.7309 16.7551C57.29 17.6356 57.0748 17.948 56.1025 18.3267C55.7361 18.4115 55.7361 18.4115 55.3623 18.4979C55.3623 18.1693 55.3623 17.8406 55.3623 17.502C56.7502 16.6996 56.7502 16.6996 57.2045 16.5061Z" fill="#1E1113"/>
<path d="M52.7307 39.1628C53.3946 39.6544 53.5184 39.9017 53.7012 40.7034C53.7283 40.9345 53.7554 41.1655 53.7834 41.4036C53.5229 41.4858 53.2623 41.5679 52.9939 41.6526C52.9613 41.3702 52.9287 41.0877 52.8952 40.7967C52.8409 40.504 52.7866 40.2113 52.7307 39.9098C52.557 39.8276 52.3833 39.7454 52.2043 39.6608C52.378 39.4965 52.5517 39.3321 52.7307 39.1628Z" fill="#120405"/>
<path d="M64.5737 16.7551C65.4822 17.1229 66.0606 17.6111 66.7449 18.2801C66.9309 18.4605 67.1168 18.6408 67.3083 18.8267C67.518 19.0337 67.518 19.0337 67.7319 19.2449C67.5582 19.4092 67.3845 19.5735 67.2055 19.7428C66.7661 19.2922 66.3276 18.8409 65.8896 18.389C65.7013 18.1962 65.7013 18.1962 65.5092 17.9995C64.5737 17.0323 64.5737 17.0323 64.5737 16.7551Z" fill="#E9495B"/>
<path d="M56.415 66.55C57.5441 66.7144 58.6731 66.8787 59.8363 67.048C59.7495 67.2945 59.6626 67.541 59.5732 67.7949C59.0955 67.6833 58.6186 67.5686 58.1421 67.4526C57.8765 67.389 57.6109 67.3255 57.3372 67.26C56.6782 67.048 56.6782 67.048 56.415 66.55Z" fill="#363636"/>
<path d="M52.7304 38.4158C52.8173 38.6623 52.9041 38.9087 52.9936 39.1627C52.6028 39.4092 52.6028 39.4092 52.2041 39.6606C52.3778 39.2498 52.5515 38.839 52.7304 38.4158ZM51.9409 39.6606C52.2014 39.825 52.462 39.9893 52.7304 40.1586C52.2093 40.4051 51.6882 40.6516 51.1513 40.9055C50.8908 40.659 50.6303 40.4125 50.3618 40.1586C50.5247 40.1226 50.6875 40.0867 50.8553 40.0497C51.4231 39.9267 51.4231 39.9267 51.9409 39.6606Z" fill="#2D2921"/>
<path d="M34.8345 33.4363C35.1819 33.6006 35.5293 33.7649 35.8872 33.9342C35.6266 34.0575 35.6266 34.0575 35.3608 34.1832C35.5345 34.7583 35.7082 35.3335 35.8872 35.926C35.7135 35.926 35.5398 35.926 35.3608 35.926C35.1003 35.1866 34.8397 34.4471 34.5713 33.6853C34.6581 33.6031 34.745 33.5209 34.8345 33.4363Z" fill="#26231D"/>
<path d="M44.572 4.05737C45.9616 4.05737 47.3512 4.05737 48.7829 4.05737C48.7829 4.30386 48.7829 4.55034 48.7829 4.8043C47.3933 4.63997 46.0037 4.47565 44.572 4.30635C44.572 4.22419 44.572 4.14202 44.572 4.05737Z" fill="#DDDDDD"/>
<path d="M42.4666 32.4404C42.5535 32.6869 42.6403 32.9334 42.7298 33.1874C43.6852 33.2695 44.6405 33.3517 45.6248 33.4363C44.5128 33.9623 43.9457 33.9994 42.7298 33.9343C42.4666 33.6853 42.4666 33.6853 42.4502 33.0473C42.4556 32.847 42.4611 32.6468 42.4666 32.4404Z" fill="#807051"/>
<path d="M28.7815 0.40053C29.3078 0.571699 29.3078 0.5717 29.8342 1.06965C29.0525 1.23397 28.2709 1.39829 27.4656 1.5676C27.5524 1.23895 27.6393 0.910305 27.7288 0.571699C28.2551 0.322725 28.2551 0.322725 28.7815 0.40053Z" fill="#1E1E1E"/>
<path d="M22.4651 6.79614C22.4651 7.86424 22.4651 8.93234 22.4651 10.0328C22.3782 10.0328 22.2914 10.0328 22.2019 10.0328C22.115 9.45768 22.0282 8.88255 21.9387 8.28999C21.8519 8.28999 21.765 8.28999 21.6755 8.28999C21.6755 7.87918 21.6755 7.46837 21.6755 7.04512C22.2019 6.79614 22.2019 6.79614 22.4651 6.79614Z" fill="#1F1F1F"/>
<path d="M25.3601 38.167C25.6206 38.2492 25.8812 38.3313 26.1496 38.416C25.3083 39.0754 24.4666 39.6459 23.5178 40.1588C23.9094 39.2159 24.4705 38.7212 25.3601 38.167Z" fill="#231410"/>
<path d="M20.8862 15.2612C20.8862 16.118 20.7047 16.7121 20.3598 17.502C20.0993 17.5842 19.8388 17.6663 19.5703 17.751C19.7027 16.6552 20.1198 16.0799 20.8862 15.2612Z" fill="#C3C3C3"/>
<path d="M38.2558 15.7592C37.4742 16.0878 36.6925 16.4165 35.8872 16.7551C35.8004 16.5086 35.7135 16.2621 35.624 16.0081C36.7051 15.613 37.0958 15.4848 38.2558 15.7592Z" fill="#BEBEBE"/>
<path d="M58.5203 48.6238C59.2142 49.2802 59.6401 49.8088 60.0993 50.6156C60.0993 50.7799 60.0993 50.9442 60.0993 51.1135C59.8388 51.1135 59.5782 51.1135 59.3098 51.1135C59.0493 50.2919 58.7887 49.4703 58.5203 48.6238Z" fill="#2C2C2C"/>
<path d="M41.4138 59.5786C41.8744 59.6097 41.8744 59.6097 42.4665 59.8276C43.0587 60.5901 43.0587 60.5901 43.5192 61.3214C43.2587 61.3214 42.9981 61.3214 42.7297 61.3214C41.9402 60.4915 41.9402 60.4915 41.9402 59.8276C41.7665 59.7454 41.5928 59.6633 41.4138 59.5786Z" fill="#27241F"/>
<path d="M45.0984 41.6526C46.5314 41.8991 46.5314 41.8991 47.9933 42.1505C47.9933 42.2327 47.9933 42.3149 47.9933 42.3995C47.1249 42.3995 46.2564 42.3995 45.3616 42.3995C45.2747 42.153 45.1879 41.9065 45.0984 41.6526Z" fill="#060504"/>
<path d="M11.938 28.2078C12.1117 28.2078 12.2854 28.2078 12.4643 28.2078C12.3775 28.8651 12.2906 29.5223 12.2012 30.1996C11.9406 30.1174 11.6801 30.0352 11.4116 29.9506C11.5853 29.3755 11.759 28.8003 11.938 28.2078Z" fill="#E42136"/>
</svg>
